<?xml version="1.0" standalone="no"?>
<!DOCTYPE svg PUBLIC "-//W3C//DTD SVG 20010904//EN"
 "http://www.w3.org/TR/2001/REC-SVG-20010904/DTD/svg10.dtd">
<svg version="1.0" xmlns="http://www.w3.org/2000/svg"
 width="1024.000000pt" height="1024.000000pt" viewBox="0 0 1024.000000 1024.000000"
 preserveAspectRatio="xMidYMid meet">

<g transform="translate(0.000000,1024.000000) scale(0.100000,-0.100000)"
fill="#000000" stroke="none">
<path d="M0 5120 l0 -5120 5120 0 5120 0 0 5120 0 5120 -5120 0 -5120 0 0
-5120z m1678 4307 l232 -117 0 -285 0 -285 -40 -25 c-22 -14 -71 -42 -108 -61
-37 -20 -89 -49 -117 -64 -27 -15 -70 -39 -95 -52 -25 -14 -62 -35 -83 -48
l-38 -23 -102 53 c-56 30 -104 56 -107 59 -5 6 -81 47 -197 105 -52 26 -62 35
-65 61 -2 17 -2 152 0 300 l3 271 122 61 c67 34 167 86 222 116 55 30 109 54
120 54 11 -1 125 -55 253 -120z m7349 26 c98 -53 195 -105 216 -115 l37 -18 0
-299 0 -299 -122 -70 c-68 -39 -165 -95 -217 -126 l-95 -56 -35 22 c-20 12
-79 44 -131 71 -84 45 -244 133 -277 154 -17 10 -16 4 -15 324 l2 277 218 116
c119 63 222 115 229 116 6 0 91 -43 190 -97z m-1430 -5 c33 -35 133 -142 223
-238 90 -96 201 -214 246 -261 63 -64 82 -91 79 -107 -2 -12 0 -24 5 -27 5 -3
7 5 5 17 -5 26 11 10 229 -232 27 -30 72 -79 100 -109 28 -30 44 -50 36 -45
-13 7 -13 6 0 -12 23 -29 39 -45 45 -44 3 0 13 -4 23 -10 16 -11 16 -11 0 -6
-10 3 -18 2 -18 -2 0 -14 22 -31 34 -26 6 2 12 -5 13 -16 2 -28 -12 -25 -37 8
-28 35 -431 472 -580 627 -468 490 -492 516 -480 531 7 7 14 14 15 14 2 0 30
-28 62 -62z m-4893 44 c5 -9 2 -12 -164 -192 -58 -63 -124 -135 -145 -159 -72
-80 -79 -88 -151 -167 -39 -44 -84 -94 -101 -113 -36 -41 -65 -35 -30 6 66 79
80 92 87 88 12 -7 69 56 64 70 -8 20 396 475 422 475 7 0 15 -4 18 -8z m2439
-216 c15 -9 83 -18 202 -25 713 -46 1370 -241 1955 -581 550 -320 1096 -830
1449 -1355 411 -610 642 -1279 707 -2050 6 -74 27 -135 46 -135 17 0 7 -31
-21 -62 -27 -32 -28 -38 -35 -174 -18 -394 -114 -851 -263 -1254 -45 -121 -68
-175 -166 -380 -52 -110 -155 -293 -168 -298 -5 -2 -9 -8 -9 -13 0 -5 -12 -28
-27 -52 -15 -23 -32 -51 -39 -63 -15 -27 -178 -247 -210 -284 -15 -16 -30 -27
-34 -25 -4 3 -7 -3 -6 -13 0 -9 -5 -16 -12 -14 -6 1 -11 -2 -10 -7 5 -15 -66
-102 -79 -97 -7 3 -10 -1 -6 -9 8 -21 -411 -437 -431 -429 -9 3 -16 11 -16 16
0 6 6 6 14 -1 9 -7 17 -8 20 -2 3 5 1 11 -5 13 -7 2 -5 9 5 17 14 12 16 12 10
-3 -10 -26 12 -18 24 9 6 14 16 25 22 25 5 0 10 7 10 16 0 8 4 13 9 9 5 -3 13
0 17 6 4 7 3 10 -2 7 -5 -3 -18 -1 -29 3 -18 9 -18 9 3 5 14 -3 22 1 22 9 0 8
10 21 22 29 28 20 17 32 -14 16 l-23 -12 23 23 c15 16 25 20 30 13 8 -13 54
-26 46 -13 -3 5 2 9 10 9 9 0 16 8 16 18 0 13 -2 14 -9 3 -5 -7 -14 -10 -20
-7 -6 4 -11 2 -11 -5 0 -10 -3 -10 -11 -2 -14 14 -3 47 14 40 6 -2 21 4 31 14
13 13 15 19 6 19 -7 0 -10 3 -7 7 4 3 18 -4 32 -17 28 -26 34 -17 8 12 -15 17
-15 18 -1 13 12 -5 16 -2 14 12 -2 10 -1 12 1 6 3 -7 9 -13 14 -13 6 0 7 -6 4
-12 -4 -7 2 -2 13 12 12 14 18 27 15 30 -3 3 -8 -1 -10 -7 -9 -24 -24 -13 -21
15 2 15 5 29 8 32 3 3 13 18 23 33 10 15 22 25 28 21 6 -3 9 0 8 7 -2 8 1 30
6 49 5 19 9 51 10 70 0 30 3 35 25 35 19 0 26 6 27 25 1 14 0 19 -3 11 -5 -11
-8 -11 -15 0 -8 12 -10 12 -18 0 -6 -10 -13 -11 -29 -2 -29 16 -34 14 -22 -9
6 -11 8 -20 4 -20 -3 0 -1 -7 6 -15 10 -12 10 -15 0 -15 -7 0 -10 -7 -7 -14 4
-10 1 -13 -7 -10 -7 3 -13 11 -13 19 0 8 5 11 10 8 5 -3 8 0 6 6 -3 7 -8 12
-12 12 -4 -1 -14 -1 -23 -1 -14 0 -15 -2 -3 -17 13 -16 12 -17 -3 -4 -17 12
-23 9 -19 -12 1 -5 -3 -6 -9 -2 -5 3 -11 0 -11 -7 -1 -7 -2 -20 -3 -28 0 -9
-9 -14 -20 -12 -17 3 -18 2 -7 -12 7 -9 18 -13 25 -9 6 3 7 2 3 -3 -5 -5 -12
-9 -15 -9 -4 0 -12 -4 -19 -8 -6 -4 -15 -2 -18 3 -5 8 -14 5 -28 -7 -17 -14
-17 -12 3 12 43 50 47 54 54 48 3 -4 6 -1 6 6 0 11 87 122 115 146 6 6 51 64
100 130 49 66 101 136 115 155 15 19 32 45 39 58 7 13 17 20 23 16 7 -5 9 -2
5 9 -3 8 1 21 9 27 10 9 14 9 14 1 0 -6 -5 -11 -11 -11 -5 0 -8 -4 -5 -9 4 -5
3 -17 0 -26 -5 -13 -9 -14 -15 -4 -5 9 -10 5 -14 -14 -4 -15 -11 -27 -16 -27
-5 0 -8 -10 -6 -22 1 -18 -2 -22 -18 -20 -19 3 -19 3 -2 -14 16 -18 18 -17 47
14 17 18 30 42 30 53 0 10 4 19 10 19 5 0 7 6 4 14 -3 8 3 19 15 26 12 6 21
17 21 24 0 8 9 24 21 37 18 21 20 22 14 4 -4 -14 -3 -17 5 -9 8 8 8 19 0 38
-5 15 -6 25 -1 22 5 -3 12 1 15 10 9 24 7 44 -5 44 -5 0 -7 -5 -3 -12 5 -7 3
-8 -6 -3 -10 6 -12 4 -7 -9 4 -10 3 -15 -3 -11 -6 3 -10 -1 -10 -10 0 -9 -4
-13 -10 -10 -6 3 0 21 14 43 148 237 315 661 411 1042 44 179 105 551 105 647
0 42 5 50 70 120 l70 75 0 75 c0 90 -10 111 -89 185 -56 53 -61 61 -61 101 0
97 -48 379 -97 567 -221 860 -754 1643 -1514 2230 -518 398 -1138 664 -1819
779 -96 17 -214 33 -261 37 l-87 7 -7 -33 c-4 -17 -3 -35 1 -40 5 -4 62 -13
127 -19 339 -33 761 -141 1111 -285 611 -251 1097 -613 1592 -1186 50 -58 112
-136 139 -175 26 -38 67 -97 90 -130 109 -152 265 -432 350 -625 167 -380 261
-736 298 -1133 5 -48 4 -49 -29 -63 -18 -8 -35 -14 -37 -14 -2 0 -7 44 -10 98
-13 203 -72 496 -148 729 -55 170 -52 165 -87 148 -15 -8 -84 -38 -154 -66
-92 -37 -128 -56 -128 -68 1 -9 9 -41 20 -71 28 -79 26 -84 -28 -111 l-49 -24
-23 65 c-165 470 -384 851 -698 1210 -95 109 -291 301 -412 405 -58 49 -108
94 -112 99 -6 9 49 86 63 86 3 0 32 -21 63 -47 l57 -46 15 22 c9 12 20 18 26
15 7 -4 8 -2 4 5 -8 12 128 174 151 179 17 4 16 -3 -3 -33 -9 -14 -21 -22 -27
-18 -6 3 -7 1 -3 -6 4 -7 -16 -37 -49 -74 -101 -110 -100 -97 -9 -182 43 -41
83 -74 88 -75 4 0 49 41 99 90 50 50 96 90 101 90 11 0 -7 -20 -106 -123 -38
-39 -68 -73 -68 -77 0 -5 48 -59 108 -122 59 -62 129 -139 156 -171 34 -40 52
-55 60 -47 17 17 27 11 14 -9 -9 -16 -4 -28 37 -82 27 -35 50 -66 51 -68 2 -2
20 11 41 28 132 107 205 161 218 161 36 0 7 -34 -101 -114 -63 -48 -118 -94
-121 -102 -7 -19 136 -236 151 -227 6 4 43 28 83 55 92 61 171 108 183 108 19
0 9 -17 -17 -30 -45 -23 -217 -136 -230 -151 -9 -11 1 -36 44 -116 l55 -103
146 76 c81 41 148 79 150 84 2 4 -11 35 -29 67 -410 742 -1100 1395 -1824
1725 -473 215 -802 303 -1405 375 -54 7 -65 11 -68 28 -8 55 -39 98 -115 162
-44 37 -87 72 -94 76 -9 5 -37 -12 -86 -51 -110 -92 -138 -124 -144 -170 l-5
-41 -67 -6 c-414 -40 -803 -131 -1177 -274 -129 -50 -125 -34 -49 -201 37 -82
71 -144 78 -143 12 2 310 113 314 117 2 2 -18 65 -43 141 -30 90 -42 141 -36
147 13 13 20 -2 72 -154 l43 -126 51 15 c28 8 56 16 63 18 8 3 3 35 -18 112
-29 108 -39 176 -18 123 15 -36 79 -301 79 -326 0 -18 -11 -24 -67 -39 -38
-10 -108 -33 -158 -51 -507 -182 -880 -409 -1255 -761 -110 -104 -267 -268
-310 -325 -8 -11 -29 -37 -47 -59 -17 -21 -41 -55 -53 -74 -13 -21 -26 -32
-33 -28 -7 3 -9 3 -5 -2 7 -7 -88 -157 -104 -163 -4 -2 -8 -7 -8 -12 0 -4 -24
-47 -53 -96 -71 -118 -147 -264 -182 -346 -16 -37 -33 -64 -39 -61 -5 3 -6 1
-2 -6 10 -16 -74 -242 -87 -234 -6 4 -8 0 -4 -10 4 -10 1 -30 -5 -45 -6 -15
-12 -31 -12 -37 -1 -11 -48 -16 -56 -6 -3 3 -17 12 -32 18 -20 9 -25 17 -21
32 3 12 9 18 14 15 12 -7 -2 28 -17 43 -8 9 -14 9 -23 0 -8 -8 -11 -6 -11 9 0
14 -3 16 -9 6 -7 -11 -24 -9 -93 12 -46 14 -91 26 -99 26 -8 0 -32 9 -53 20
-21 10 -36 17 -33 14 3 -3 -3 -31 -14 -62 -10 -30 -33 -112 -49 -181 -17 -69
-33 -133 -37 -141 -3 -8 -6 -28 -8 -45 -2 -16 -10 -75 -18 -130 -9 -55 -19
-139 -23 -187 -6 -77 -9 -88 -25 -88 -11 0 -19 4 -19 10 0 5 -6 9 -12 7 -15
-2 -23 62 -13 102 5 20 8 22 16 10 5 -7 8 -25 8 -39 0 -23 -1 -23 -9 -5 -7 16
-9 12 -9 -19 -1 -30 2 -37 14 -32 9 3 15 0 15 -9 0 -30 16 -14 18 18 2 24 0
28 -8 17 -14 -21 -13 21 2 143 10 80 10 99 -1 110 -11 10 -13 9 -7 -6 3 -10 3
-51 -1 -90 l-7 -72 -8 55 c-6 37 -4 76 6 125 47 230 60 285 65 285 11 0 28
-15 32 -27 2 -7 4 18 4 56 0 39 -3 65 -7 58 -15 -24 -7 6 46 166 43 130 121
327 101 255 -2 -10 0 -18 6 -18 7 0 9 10 5 26 -5 20 13 66 83 208 103 207 286
510 303 500 6 -4 8 -2 5 4 -4 5 21 48 55 94 265 359 563 663 882 902 464 348
1023 594 1621 715 133 27 369 61 423 61 l42 0 0 40 c0 47 2 46 -145 30 -340
-39 -731 -135 -1034 -255 -445 -176 -821 -399 -1156 -686 -285 -244 -452 -425
-717 -774 -15 -19 -153 -225 -163 -243 -6 -9 -36 -60 -67 -114 -74 -124 -188
-355 -229 -463 -18 -47 -36 -80 -39 -74 -4 6 -7 -2 -7 -18 -1 -40 -47 -166
-57 -156 -5 4 -6 3 -2 -4 4 -7 -4 -45 -17 -85 -14 -40 -30 -95 -37 -123 -6
-27 -14 -57 -17 -65 -3 -8 -7 -22 -8 -30 -4 -30 -17 -60 -26 -60 -5 0 -9 -5
-9 -11 0 -5 5 -7 12 -3 6 4 8 3 5 -3 -11 -18 -57 -292 -63 -378 -5 -76 -15
-105 -35 -105 -5 0 -9 10 -8 23 0 21 1 21 8 2 7 -18 9 -16 15 11 5 20 1 50 -9
82 -13 39 -14 58 -6 88 8 28 8 40 -1 46 -10 5 -10 17 0 53 7 25 12 59 12 75 0
17 4 30 9 30 7 0 23 82 27 145 1 11 5 33 9 49 5 20 4 31 -6 37 -8 5 -9 9 -4 9
6 0 10 11 10 24 0 13 -3 22 -6 20 -4 -2 -14 5 -24 16 -18 19 -17 20 10 20 l28
0 -6 60 c-4 33 -3 60 2 60 5 0 12 8 16 18 12 28 32 192 24 192 -12 0 -18 -26
-13 -59 4 -24 1 -31 -10 -31 -12 0 -16 10 -16 40 0 22 -4 40 -9 40 -13 0 -21
-39 -14 -73 4 -21 3 -28 -5 -23 -6 4 -9 13 -6 20 3 8 0 17 -6 21 -7 4 -7 11
-2 18 5 7 15 33 22 60 12 45 30 64 30 32 0 -8 9 -15 20 -15 25 0 26 9 3 25
-15 11 -15 15 -4 29 7 9 10 16 6 16 -4 0 -14 -8 -22 -17 -10 -13 -9 -7 3 22 9
22 18 48 21 57 3 10 9 16 13 13 5 -3 6 3 4 12 -8 32 192 427 210 416 5 -4 7 0
3 9 -3 9 3 25 14 37 11 12 17 21 14 21 -4 0 4 18 16 40 12 21 26 37 30 34 5
-3 6 2 3 10 -3 9 -1 16 5 16 6 0 11 5 11 11 0 24 201 314 266 384 11 11 32 39
47 61 42 62 216 256 326 363 210 205 496 440 652 537 487 302 857 465 1327
584 295 74 549 113 860 130 126 7 179 14 195 25 26 18 32 19 60 1z m77 -376
c0 -11 -1 -20 -3 -20 -2 0 -26 22 -55 50 l-51 49 -51 -51 c-45 -45 -50 -48
-50 -27 0 15 19 43 53 77 l52 53 53 -56 c28 -31 52 -65 52 -75z m-2970 116 c0
-2 -8 -10 -17 -17 -16 -13 -17 -12 -4 4 13 16 21 21 21 13z m-166 -219 c-14
-24 -37 -47 -48 -47 -6 0 0 7 12 16 13 9 21 22 18 29 -6 16 3 27 16 19 4 -3 5
-11 2 -17z m2420 -139 c38 -183 30 -167 74 -158 20 5 73 11 117 15 129 11 119
-3 112 144 -4 77 -3 118 3 106 5 -11 9 -49 10 -85 0 -36 5 -110 10 -164 5 -55
8 -101 6 -103 -1 -2 -70 -12 -152 -23 -82 -10 -173 -24 -203 -30 -81 -15 -98
-13 -104 13 -2 12 -23 87 -45 167 -22 80 -43 161 -46 180 -6 32 -6 34 8 16 8
-10 29 -79 47 -153 24 -100 34 -131 43 -124 7 6 36 15 64 22 29 6 52 13 52 15
0 3 -11 60 -25 126 -28 137 -31 168 -12 168 10 0 22 -42 41 -132z m912 35 c-4
-54 -10 -112 -13 -130 -5 -31 -4 -32 44 -38 63 -8 311 -45 344 -52 26 -5 27
-3 49 89 39 163 51 198 66 198 20 0 18 -27 -16 -160 -16 -65 -30 -123 -30
-129 0 -8 139 -46 145 -39 1 2 17 51 35 110 18 60 35 106 38 104 2 -2 -7 -42
-21 -88 -43 -145 -46 -131 29 -155 l66 -22 15 37 c9 20 30 82 47 137 22 70 37
101 49 103 25 5 22 -19 -23 -147 -22 -63 -40 -120 -40 -127 0 -9 144 -68 296
-121 6 -2 39 57 74 132 35 74 69 135 76 135 13 0 9 -10 -79 -203 l-36 -77 51
-26 c42 -21 53 -23 63 -12 7 7 40 65 74 128 58 111 82 142 97 127 4 -4 -23
-67 -59 -140 -37 -73 -67 -138 -67 -143 0 -9 98 -64 115 -64 6 0 42 50 80 111
38 61 73 113 78 116 9 5 -27 -60 -54 -99 -11 -14 -19 -28 -19 -31 0 -3 -15
-29 -32 -58 -31 -49 -32 -53 -15 -63 10 -6 48 -30 85 -53 36 -24 71 -43 77
-43 5 1 50 55 98 122 60 81 92 117 99 110 6 -6 -18 -47 -74 -123 -46 -63 -94
-130 -106 -149 -48 -76 -45 -74 -90 -46 -74 46 -327 175 -427 217 -358 149
-731 243 -1090 274 -38 3 -87 8 -107 11 l-38 6 0 54 0 54 49 0 49 0 6 38 c3
20 8 62 11 92 11 102 17 130 27 130 7 0 8 -33 4 -97z m-256 -148 c0 -117 -4
-185 -10 -185 -6 0 -10 61 -10 163 0 146 5 207 16 207 2 0 4 -83 4 -185z
m-3170 171 c0 -3 -4 -8 -10 -11 -5 -3 -10 -1 -10 4 0 6 5 11 10 11 6 0 10 -2
10 -4z m3715 -92 c-19 -102 -25 -127 -31 -121 -2 2 5 48 16 103 11 54 20 103
20 108 0 5 2 7 6 4 3 -3 -2 -46 -11 -94z m-3728 48 c-7 -10 -13 -10 -15 -3 -2
6 -9 8 -14 5 -6 -4 -8 -3 -5 2 3 5 15 10 26 10 16 0 18 -3 8 -14z m-309 -357
c-3 -3 -9 2 -12 12 -6 14 -5 15 5 6 7 -7 10 -15 7 -18z m-18 -14 c0 -4 -6 -8
-14 -8 -8 0 -12 6 -9 14 5 13 23 9 23 -6z m3796 4 c173 -17 247 -29 394 -61
321 -71 659 -199 937 -355 498 -281 895 -650 1198 -1114 145 -222 202 -332
298 -577 104 -263 166 -507 192 -758 19 -175 19 -499 0 -667 -35 -317 -128
-653 -267 -968 -53 -120 -171 -334 -181 -328 -6 3 -7 2 -4 -4 7 -12 -50 -103
-64 -103 -14 0 -11 12 7 25 15 11 15 12 0 12 -9 0 -17 -5 -18 -11 0 -6 -2 -15
-2 -21 -1 -5 -6 -17 -11 -25 -8 -13 -7 -13 10 0 17 14 18 14 6 -8 -7 -12 -16
-20 -21 -17 -5 3 -12 0 -16 -6 -4 -8 -3 -9 4 -5 7 4 12 5 12 1 0 -8 -48 -83
-78 -123 l-25 -33 -22 21 c-12 11 -24 19 -26 18 -3 -2 3 5 14 14 10 9 18 21
18 25 1 18 111 173 120 168 5 -3 6 2 2 11 -5 13 -3 15 7 9 8 -5 11 -3 8 6 -3
8 13 42 34 77 50 82 159 299 202 405 229 552 296 1181 185 1747 -139 715 -569
1398 -1178 1873 -499 390 -1066 620 -1716 699 -161 19 -565 16 -740 -6 -401
-50 -777 -161 -1115 -330 -192 -96 -303 -163 -468 -284 -195 -141 -258 -196
-428 -367 -139 -140 -162 -160 -173 -146 -9 13 -10 12 -1 -5 8 -18 4 -29 -21
-60 -17 -22 -39 -50 -50 -64 -64 -84 -82 -105 -91 -102 -5 1 -7 -2 -3 -8 3 -5
-12 -33 -33 -62 -49 -66 -181 -287 -225 -376 -19 -37 -51 -109 -72 -159 -22
-54 -42 -90 -48 -86 -6 3 -7 1 -3 -5 10 -16 -45 -192 -57 -185 -6 3 -7 1 -3
-5 4 -7 -5 -60 -19 -119 -45 -182 -56 -239 -70 -371 -8 -75 -20 -90 -18 -24 0
24 -1 28 -4 12 -3 -13 -12 -29 -20 -35 -13 -10 -13 -15 -2 -33 8 -12 16 -22
19 -22 3 0 4 -138 4 -308 -1 -199 2 -309 9 -314 7 -4 7 -25 0 -65 -6 -32 -10
-98 -9 -146 2 -98 -7 -89 -29 28 -39 204 -55 559 -34 755 5 47 9 98 9 113 0
16 3 33 6 39 4 6 8 34 10 62 3 60 48 291 65 332 7 16 11 33 10 37 -3 16 52
177 59 172 12 -7 21 25 14 48 -4 14 -3 17 6 12 9 -5 11 -4 6 4 -8 13 12 83 22
77 4 -2 8 7 8 20 4 52 213 452 234 447 5 -2 7 3 5 10 -5 15 166 262 182 262 6
0 15 4 20 9 5 5 2 6 -6 1 -9 -5 -12 -3 -9 6 3 8 11 13 17 11 7 -1 10 1 7 6 -8
14 24 53 37 46 7 -4 9 -4 5 1 -4 4 -3 14 3 22 10 11 15 11 28 1 14 -12 14 -11
2 4 -12 16 -8 24 34 74 79 92 283 291 390 380 406 336 866 567 1380 689 159
38 363 71 510 84 162 13 479 12 631 -4z m3215 -22 c5 -13 13 -22 18 -19 5 4 7
-4 3 -16 -4 -17 -2 -20 12 -15 11 4 15 3 11 -4 -8 -11 24 -51 35 -44 3 2 21
-12 39 -30 19 -21 25 -32 15 -28 -12 4 -15 3 -10 -5 4 -7 13 -12 20 -12 8 0
16 -9 19 -20 3 -11 4 -20 2 -20 -2 0 -40 42 -84 93 -45 50 -91 102 -102 115
-11 12 -17 27 -14 32 9 14 25 2 36 -27z m905 -101 c-17 -4 -17 -4 0 -16 11 -9
13 -15 6 -20 -14 -9 -34 28 -26 49 5 13 9 13 22 3 13 -12 13 -13 -2 -16z
m-2146 -89 c0 -21 -185 -242 -194 -233 -2 3 23 41 56 85 33 44 72 97 86 117
24 34 52 50 52 31z m1914 -64 c-3 -5 0 -9 7 -9 7 0 10 -2 7 -5 -3 -4 -17 -3
-32 1 -22 5 -24 9 -15 26 8 15 13 17 25 8 7 -7 11 -16 8 -21z m-4004 1 c74 -6
207 -22 295 -37 167 -27 206 -31 241 -19 15 5 29 0 51 -18 19 -16 72 -38 131
-56 131 -39 310 -109 439 -170 56 -28 107 -50 113 -50 6 0 22 7 35 16 49 32
116 -5 135 -75 9 -34 22 -47 88 -92 42 -29 102 -72 132 -96 30 -24 80 -62 110
-85 84 -63 332 -319 435 -448 89 -111 165 -226 165 -248 0 -19 -25 -3 -44 28
-36 62 -192 250 -312 377 -160 169 -367 346 -525 449 -66 43 -67 43 -99 28
-20 -10 -44 -14 -66 -11 l-34 6 0 -130 c0 -106 3 -131 15 -135 8 -4 15 -11 15
-16 0 -7 -5 -6 -14 1 -11 9 -15 8 -20 -4 -7 -19 -27 -16 -45 8 -11 16 -10 22
10 43 21 22 22 32 21 134 0 60 -6 118 -12 129 -5 11 -10 35 -10 54 0 33 -2 35
-90 76 -195 91 -344 148 -492 190 -57 17 -69 17 -79 5 -19 -23 -56 -16 -81 15
-21 28 -33 32 -168 55 -287 50 -499 63 -740 47 -282 -19 -492 -57 -511 -92
-18 -34 -46 -42 -78 -23 -28 17 -33 16 -108 -5 -272 -78 -618 -234 -838 -379
-66 -43 -125 -85 -131 -93 -7 -8 -10 -27 -9 -44 l4 -30 -17 22 -17 22 -85 -70
c-167 -139 -363 -342 -516 -536 -49 -61 -97 -115 -106 -118 -10 -3 -18 -11
-18 -16 0 -6 5 -7 12 -3 6 4 -1 -11 -18 -33 -16 -23 -33 -39 -38 -36 -5 4 -6
1 -2 -5 9 -15 -18 -55 -29 -44 -5 4 -5 1 -1 -6 4 -6 -2 -25 -13 -41 -11 -15
-35 -55 -53 -87 -51 -91 -56 -99 -62 -93 -10 9 22 76 46 100 13 12 17 19 11
15 -9 -5 -11 -2 -7 8 3 9 10 13 16 10 5 -3 9 0 7 7 -3 28 1 40 13 33 6 -4 8
-3 4 4 -3 6 15 47 41 91 37 61 51 77 61 69 9 -8 11 -7 6 5 -8 22 53 111 175
257 134 160 242 272 257 266 8 -3 11 0 8 8 -2 6 23 37 57 67 34 29 74 64 88
77 14 13 51 42 81 65 30 23 57 44 60 48 13 14 146 103 240 159 221 133 500
255 740 325 60 17 105 37 122 52 22 21 33 24 60 19 51 -11 63 -10 218 18 230
41 491 54 730 36z m3842 -32 c-8 -8 -9 -4 -5 13 4 13 8 18 11 10 2 -7 -1 -18
-6 -23z m-209 -21 c4 3 7 -6 7 -20 0 -35 -5 -34 -24 4 -11 22 -12 28 -2 20 7
-6 16 -8 19 -4z m-23 -27 c0 -5 -2 -10 -4 -10 -3 0 -8 5 -11 10 -3 6 -1 10 4
10 6 0 11 -4 11 -10z m673 -74 c60 -33 173 -93 270 -143 l47 -25 0 -241 0
-242 -27 -12 c-16 -7 -57 -24 -93 -39 -36 -15 -76 -36 -89 -46 -13 -10 -28
-15 -33 -12 -6 4 -5 10 3 15 12 7 11 9 -1 9 -11 1 -9 6 7 19 22 19 22 19 2 24
-14 4 -18 10 -13 19 6 10 4 10 -9 -1 -10 -8 -20 -11 -23 -8 -3 3 8 13 26 22
26 14 34 14 48 3 15 -12 16 -11 3 5 -12 16 -10 19 14 17 3 -1 17 8 32 20 14
11 31 20 38 20 22 0 25 26 25 195 l0 163 -139 71 c-77 39 -146 71 -153 71 -7
0 -75 -32 -151 -71 l-137 -70 0 -174 0 -173 95 -46 c60 -30 93 -51 89 -58 -4
-6 -3 -8 4 -4 6 3 31 -3 55 -15 l45 -22 40 21 c38 20 84 24 90 9 7 -21 1 -27
-17 -17 -11 5 -26 10 -33 10 -7 -1 0 -7 17 -14 48 -20 39 -46 -30 -83 -64 -34
-80 -39 -70 -22 4 6 1 9 -6 7 -22 -4 -79 23 -72 34 3 6 0 8 -8 5 -8 -2 -32 6
-54 18 -22 13 -44 24 -50 25 -5 1 -30 11 -55 22 -25 12 -64 29 -87 39 -38 16
-42 22 -48 61 -3 24 -5 133 -3 243 l3 199 165 88 c91 48 176 94 190 103 32 18
22 20 93 -19z m-8822 -53 c37 -14 65 -31 62 -36 -3 -6 -1 -7 5 -3 6 3 37 -5
69 -20 32 -14 69 -30 82 -35 51 -20 9 -20 -56 0 -115 36 -153 52 -147 62 5 8
-57 14 -96 10 -16 -2 -148 -57 -216 -90 -55 -27 -90 -35 -98 -22 -8 12 61 44
75 35 5 -3 9 -1 9 3 0 14 90 54 103 47 7 -4 8 -3 4 2 -5 5 20 23 60 41 37 18
70 32 72 33 2 0 34 -12 72 -27z m12 -172 c105 -49 155 -106 85 -97 -69 9 -324
10 -336 2 -23 -14 7 36 32 54 18 13 128 79 133 80 1 0 40 -18 86 -39z m4150
32 c-7 -2 -19 -2 -25 0 -7 3 -2 5 12 5 14 0 19 -2 13 -5z m380 0 c-18 -2 -48
-2 -65 0 -18 2 -4 4 32 4 36 0 50 -2 33 -4z m90 -10 c-7 -2 -21 -2 -30 0 -10
3 -4 5 12 5 17 0 24 -2 18 -5z m4176 -29 c12 -15 21 -41 21 -61 0 -21 6 -36
15 -39 12 -5 15 -28 15 -120 l0 -115 -106 3 -107 3 0 75 c0 135 2 160 16 160
9 0 14 13 15 36 2 57 25 84 72 84 30 0 43 -6 59 -26z m-3872 -20 c-3 -3 -12
-4 -19 -1 -8 3 -5 6 6 6 11 1 17 -2 13 -5z m150 -40 c-3 -3 -12 -4 -19 -1 -8
3 -5 6 6 6 11 1 17 -2 13 -5z m-246 -35 c26 -10 49 -45 49 -74 0 -16 -2 -15
145 -50 143 -34 436 -122 500 -150 59 -26 111 -67 129 -104 7 -14 21 -68 31
-118 l17 -93 37 0 c45 0 74 -19 91 -60 7 -16 18 -30 24 -31 6 0 34 -1 61 -2
45 -2 50 -5 53 -26 4 -24 3 -24 -62 -17 -62 6 -68 5 -92 -19 -34 -34 -69 -41
-110 -22 -38 19 -50 48 -40 105 7 45 -28 247 -49 278 -27 41 -85 77 -166 101
-43 13 -116 36 -161 50 -123 38 -211 60 -327 84 -113 23 -121 21 -121 -31 0
-42 35 -88 77 -100 104 -29 424 -92 469 -91 38 0 56 -5 69 -19 20 -22 13 -55
-16 -71 -16 -8 -25 -5 -49 19 -19 20 -44 32 -72 36 -24 4 -133 27 -243 51
-192 43 -201 46 -232 79 -18 20 -33 44 -33 55 0 32 -11 51 -30 51 -24 0 -80
56 -80 80 0 35 19 69 46 83 32 17 51 18 85 6z m-1010 -9 c10 -6 26 -24 34 -41
42 -80 -72 -173 -131 -108 -13 14 -26 19 -45 15 -73 -14 -664 -289 -805 -374
-41 -25 -44 -30 -44 -69 0 -24 9 -60 21 -83 25 -47 20 -80 -16 -116 -41 -41
-104 -25 -134 33 -21 41 18 107 71 118 l29 7 -3 138 c-2 103 -7 142 -17 152
-10 10 -12 10 -7 1 5 -9 0 -13 -13 -13 -10 0 -27 -3 -36 -6 -16 -6 -16 -5 -2
23 20 38 46 60 55 46 4 -5 17 -15 30 -22 20 -11 22 -19 22 -101 0 -50 3 -90 6
-90 3 0 52 26 107 57 125 70 416 210 599 289 118 50 139 63 147 87 21 58 80
84 132 57z m1429 -10 c8 -5 11 -10 5 -10 -5 0 -17 5 -25 10 -8 5 -10 10 -5 10
6 0 17 -5 25 -10z m930 -165 c0 -9 -8 -27 -17 -41 -14 -22 -14 -27 -2 -35 12
-7 11 -9 -2 -9 -9 0 -20 -7 -23 -15 -5 -14 -9 -14 -36 0 -16 8 -30 20 -30 26
0 19 31 21 50 4 11 -10 20 -13 20 -7 0 6 -5 12 -11 14 -7 2 -2 18 13 40 25 40
38 47 38 23z m-3690 -45 c0 -5 -7 -7 -15 -4 -8 4 -12 10 -9 15 6 11 24 2 24
-11z m50 -19 c0 -39 -45 -56 -69 -27 -10 11 -6 16 16 24 36 13 53 14 53 3z
m4740 -16 c0 -2 -10 -9 -22 -15 -22 -11 -22 -10 -4 4 21 17 26 19 26 11z
m-7540 -75 c15 -12 19 -20 11 -20 -8 0 -11 -3 -8 -6 4 -4 13 -1 22 6 12 10 19
10 37 -2 13 -8 36 -18 51 -22 17 -4 25 -11 21 -18 -4 -6 -3 -8 3 -5 6 4 24 2
41 -4 25 -8 39 -6 76 11 26 11 52 18 58 14 7 -5 8 -3 3 6 -6 10 -3 12 13 8 12
-3 23 0 25 7 6 14 68 45 91 45 9 0 16 -8 16 -18 0 -13 -13 -23 -42 -32 -24 -8
-49 -12 -57 -11 -7 1 -10 -2 -6 -8 4 -7 -1 -8 -12 -4 -16 6 -17 5 -3 -12 9
-11 10 -16 3 -11 -7 4 -39 -5 -72 -19 -43 -20 -64 -24 -77 -17 -27 13 -82 22
-87 14 -2 -4 -2 -2 -1 5 2 6 -34 26 -81 45 -72 28 -82 35 -74 50 12 23 18 22
49 -2z m6175 -10 c10 -11 16 -20 13 -20 -3 0 -13 9 -23 20 -10 11 -16 20 -13
20 3 0 13 -9 23 -20z m-1550 -28 c275 -206 585 -382 895 -505 169 -67 473
-142 894 -221 173 -33 223 -82 246 -247 49 -343 75 -965 51 -1200 -15 -140
-52 -327 -86 -434 -68 -211 -241 -503 -449 -760 -44 -55 -88 -109 -96 -119
-20 -26 -99 -113 -185 -204 -168 -179 -704 -602 -743 -587 -7 3 -10 1 -7 -5 3
-5 -16 -21 -42 -37 -27 -15 -82 -49 -123 -75 -41 -26 -78 -48 -82 -48 -4 0
-30 -14 -58 -31 -44 -27 -53 -29 -68 -18 -15 13 -16 12 -3 -3 13 -18 7 -24
-21 -19 -5 0 -8 -3 -8 -8 0 -13 -140 -82 -152 -75 -7 4 -8 2 -4 -4 13 -22 -18
-13 -101 29 -46 23 -80 46 -76 52 3 6 1 7 -5 3 -6 -4 -21 -2 -33 5 -15 8 -18
13 -10 19 9 5 8 9 -4 13 -9 4 -13 3 -10 -3 8 -13 2 -13 -29 1 -14 7 -23 16
-19 22 3 6 1 7 -5 4 -13 -9 -44 2 -37 13 3 4 -3 7 -13 6 -9 0 -16 5 -14 12 1
8 -2 11 -9 6 -6 -3 -14 -3 -18 2 -3 5 -19 15 -34 22 -17 7 -25 17 -21 24 4 6
3 8 -4 4 -13 -8 -46 10 -197 109 -72 47 -113 80 -109 87 4 7 3 8 -4 4 -6 -4
-25 3 -42 15 -25 19 -28 25 -17 38 11 14 10 14 -7 1 -16 -13 -20 -12 -38 10
-11 14 -21 23 -22 20 -2 -8 -203 147 -256 198 -13 13 -13 14 0 7 9 -5 12 -4 7
1 -5 5 -12 9 -17 9 -4 0 -24 16 -43 35 -24 23 -33 38 -27 46 6 7 5 11 -5 11
-8 0 -12 -4 -9 -9 9 -13 -13 -9 -25 5 -6 8 -7 18 -3 23 4 5 3 6 -1 2 -12 -9
-48 23 -40 35 3 6 2 7 -4 4 -13 -8 -57 39 -49 52 4 6 1 9 -7 5 -18 -6 -99 84
-90 100 3 6 2 8 -2 3 -9 -8 -45 20 -45 35 0 5 -16 25 -36 43 -20 19 -33 39
-29 45 4 6 2 9 -3 8 -14 -5 -64 60 -56 73 4 7 3 9 -3 6 -22 -14 -262 341 -247
365 4 7 2 8 -4 4 -15 -9 -141 252 -185 384 -41 121 -70 260 -88 410 -25 226
-8 785 36 1150 18 154 27 185 49 184 12 -2 14 1 6 11 -13 16 27 61 72 80 18 7
152 36 298 65 509 99 669 150 1005 320 180 91 330 182 535 324 69 47 127 86
130 86 3 0 28 -17 55 -38z m1762 -146 c119 -100 264 -257 382 -416 30 -41 73
-94 94 -117 38 -42 45 -72 18 -81 -10 -3 -12 0 -8 12 4 9 3 15 -2 12 -5 -3
-16 9 -25 27 -36 78 -324 425 -403 487 -48 37 -163 150 -154 150 5 0 49 -33
98 -74z m-3537 61 c0 -2 -10 -12 -22 -23 l-23 -19 19 23 c18 21 26 27 26 19z
m-60 -52 c-7 -9 -36 -34 -64 -56 -48 -39 -48 -38 9 15 60 56 79 70 55 41z
m-144 -130 c-40 -34 -46 -31 -11 5 16 16 31 27 34 24 3 -2 -8 -16 -23 -29z
m6154 18 c0 -1 -10 -11 -22 -23 -12 -11 -18 -23 -14 -27 4 -4 12 -1 17 7 9 13
10 13 6 0 -2 -8 -12 -15 -23 -15 -10 -1 -25 -4 -31 -8 -9 -6 -12 0 -9 24 2 17
9 35 16 39 11 7 60 9 60 3z m395 -13 c3 -6 -1 -7 -9 -4 -18 7 -21 14 -7 14 6
0 13 -4 16 -10z m-375 -4 c0 -3 -4 -8 -10 -11 -5 -3 -10 -1 -10 4 0 6 5 11 10
11 6 0 10 -2 10 -4z m10 -47 c0 -6 -4 -7 -10 -4 -5 3 -7 0 -5 -8 3 -7 -5 -19
-19 -26 -20 -11 -28 -11 -44 1 -15 10 -18 18 -11 28 7 12 9 11 10 -5 0 -11 3
-14 6 -7 2 6 11 12 19 12 9 0 12 -5 8 -12 -4 -8 -3 -10 2 -5 5 5 9 12 9 15 1
27 35 37 35 11z m355 2 c3 -5 0 -13 -6 -17 -7 -4 -9 -3 -5 4 3 5 0 13 -6 15
-9 4 -10 6 -1 6 6 1 14 -3 18 -8z m-8815 -55 c0 -2 -9 -6 -20 -9 -11 -3 -20
-1 -20 4 0 5 9 9 20 9 11 0 20 -2 20 -4z m2080 -126 c-32 -40 -67 -70 -41 -34
21 27 64 74 69 74 2 0 -11 -18 -28 -40z m4655 -30 c3 -5 0 -10 -7 -11 -9 0 -9
-2 -1 -5 8 -4 9 -15 2 -37 -5 -18 -9 -121 -9 -229 0 -153 4 -208 16 -244 14
-42 14 -47 -1 -64 -14 -16 -16 -41 -12 -201 3 -101 8 -201 12 -221 5 -26 4
-38 -4 -38 -8 0 -11 -111 -12 -387 -1 -214 -4 -399 -8 -413 -13 -44 -18 66
-20 440 -2 216 -7 362 -13 374 -7 13 -7 26 1 44 8 16 12 98 12 236 0 116 2
311 6 433 4 164 2 234 -7 267 -7 24 -9 49 -5 55 8 14 42 14 50 1z m-5035 -19
c0 -9 -3 -12 -8 -6 -13 18 -28 14 -28 -8 0 -12 -2 -44 -4 -72 l-3 -50 -7 55
c-4 30 -11 65 -15 77 -7 21 -4 22 29 21 26 -1 36 -6 36 -17z m330 -14 c0 -2
-10 -12 -22 -23 l-23 -19 19 23 c18 21 26 27 26 19z m-50 -61 c0 -2 -8 -10
-17 -17 -16 -13 -17 -12 -4 4 13 16 21 21 21 13z m-55 -75 c3 -6 -3 -15 -14
-21 -13 -6 -18 -16 -14 -27 4 -11 2 -14 -8 -11 -17 6 -14 49 4 60 16 10 25 10
32 -1z m-265 -227 c1 -218 2 -220 23 -221 26 -2 77 -56 77 -82 0 -10 -11 -35
-25 -56 l-26 -37 4 -411 c5 -412 2 -507 -14 -507 -5 0 -9 95 -9 211 0 198 -1
211 -19 216 -21 5 -18 36 5 63 10 12 14 68 16 217 3 200 0 223 -32 223 -6 0
-22 11 -35 25 -33 32 -33 78 0 111 l25 25 0 226 c0 125 2 224 5 222 2 -3 5
-104 5 -225z m-1563 48 c1 -20 -3 -29 -13 -29 -9 0 -13 6 -9 14 3 8 5 21 5 29
0 27 15 14 17 -14z m1283 -41 c0 -4 -6 -8 -14 -8 -8 0 -12 6 -9 14 5 13 23 9
23 -6z m-1264 -18 c-10 -10 -19 5 -10 18 6 11 8 11 12 0 2 -7 1 -15 -2 -18z
m1244 -29 c0 -8 -4 -12 -10 -9 -5 3 -10 13 -10 21 0 8 5 12 10 9 6 -3 10 -13
10 -21z m-1307 -14 c-3 -11 -10 -23 -16 -27 -5 -3 -8 -2 -5 3 3 5 8 17 11 27
9 24 16 22 10 -3z m-10 -85 c4 -27 3 -35 -3 -25 -8 12 -10 13 -10 1 0 -8 -7
-22 -16 -32 -8 -9 -16 -26 -17 -37 0 -11 -4 -19 -8 -16 -4 2 -3 19 2 37 6 17
15 48 21 67 18 63 22 64 31 5z m7037 14 c0 -5 -5 -9 -11 -9 -5 0 -8 -4 -5 -8
3 -5 -1 -9 -9 -9 -23 0 -18 33 5 34 11 1 20 -2 20 -8z m-5760 -18 c0 -6 -4
-13 -10 -16 -5 -3 -10 1 -10 9 0 9 5 16 10 16 6 0 10 -4 10 -9z m-1583 -33
c-3 -7 -5 -2 -5 12 0 14 2 19 5 13 2 -7 2 -19 0 -25z m1539 -69 c-14 -35 -25
-58 -26 -52 0 7 6 30 14 50 8 21 17 47 20 57 4 10 9 17 11 14 3 -3 -6 -34 -19
-69z m-1244 29 c-7 -7 -12 -8 -12 -2 0 14 12 26 19 19 2 -3 -1 -11 -7 -17z m9
-31 c-10 -9 -11 -8 -5 6 3 10 9 15 12 12 3 -3 0 -11 -7 -18z m272 -27 c-3 -11
-7 -20 -9 -20 -2 0 -4 9 -4 20 0 11 4 20 9 20 5 0 7 -9 4 -20z m-339 -46 c-3
-20 -10 -46 -15 -58 -6 -15 -7 -10 -3 19 7 48 14 75 20 75 2 0 1 -16 -2 -36z
m-27 -116 c-3 -7 -5 -2 -5 12 0 14 2 19 5 13 2 -7 2 -19 0 -25z m7803 4 c0
-14 -14 -21 -60 -30 -34 -7 -68 -16 -76 -19 -12 -4 -15 -1 -12 13 2 14 20 24
63 36 78 21 85 21 85 0z m-7036 -4 c-4 -7 -3 -8 4 -4 13 8 92 -13 92 -25 0
-17 -19 -17 -75 0 -63 20 -84 41 -40 41 17 0 24 -4 19 -12z m-794 -115 c-11
-17 -11 -17 -6 0 3 10 7 31 7 45 l2 27 4 -27 c2 -15 -1 -35 -7 -45z m27 45
c-3 -8 -6 -5 -6 6 -1 11 2 17 5 13 3 -3 4 -12 1 -19z m7109 -9 c3 -5 5 -152 5
-327 0 -407 -3 -656 -8 -614 -2 18 -9 30 -14 27 -10 -7 -12 120 -9 550 2 263
1 271 -19 289 -24 22 -26 35 -10 69 11 24 42 27 55 6z m-5676 -6 c0 -16 -16
-30 -32 -30 -21 0 -23 8 -6 25 13 13 38 16 38 5z m-20 -60 c0 -16 2 -16 11 -3
8 12 9 10 5 -10 -3 -14 -6 -51 -6 -83 0 -40 -3 -56 -11 -51 -7 4 -9 24 -6 50
3 27 1 44 -6 44 -6 0 -7 3 -4 6 3 4 2 15 -4 26 -10 19 -5 38 12 38 5 0 9 -8 9
-17z m6428 -10 c-2 -13 -22 -21 -76 -32 -40 -7 -76 -11 -79 -7 -13 12 19 31
70 42 78 17 89 16 85 -3z m-7881 -35 c-3 -8 -6 -5 -6 6 -1 11 2 17 5 13 3 -3
4 -12 1 -19z m870 16 c-3 -3 -12 -4 -19 -1 -8 3 -5 6 6 6 11 1 17 -2 13 -5z
m-64 -11 c-7 -2 -19 -2 -25 0 -7 3 -2 5 12 5 14 0 19 -2 13 -5z m44 -9 c-3 -3
-12 -4 -19 -1 -8 3 -5 6 6 6 11 1 17 -2 13 -5z m-700 -66 c-3 -8 -6 -5 -6 6
-1 11 2 17 5 13 3 -3 4 -12 1 -19z m150 -75 c-3 -10 -5 -2 -5 17 0 19 2 27 5
18 2 -10 2 -26 0 -35z m7613 13 c0 -19 -19 -25 -102 -33 -58 -5 -70 -4 -66 8
3 8 31 19 69 25 89 16 99 16 99 0z m-7088 -12 c35 -11 19 -27 -19 -20 -21 3
-52 6 -69 6 -16 0 -39 7 -50 15 -17 13 -12 14 51 10 38 -3 78 -8 87 -11z
m-666 -20 c-4 -9 -9 -15 -11 -12 -3 3 -3 13 1 22 4 9 9 15 11 12 3 -3 3 -13
-1 -22z m24 -45 c0 -22 -13 -25 -29 -6 -8 10 -7 17 1 25 15 15 28 6 28 -19z
m7197 -21 c-3 -8 -6 -5 -6 6 -1 11 2 17 5 13 3 -3 4 -12 1 -19z m-5929 -29 c9
-12 9 -16 -1 -16 -7 0 -14 9 -14 20 -1 11 -1 18 0 16 2 -2 8 -11 15 -20z
m-1301 -3 c-4 -10 4 -18 21 -25 15 -5 21 -10 14 -10 -8 -1 -33 -22 -58 -48
-24 -27 -44 -43 -45 -38 0 6 -4 1 -9 -10 -6 -13 -9 -15 -9 -5 0 8 4 22 9 30 9
13 10 13 10 0 1 -12 3 -11 11 2 5 10 9 20 9 24 -1 4 10 14 24 23 17 12 22 21
16 30 -8 14 -3 41 7 41 3 0 3 -6 0 -14z m1050 -63 c-2 -16 -4 -5 -4 22 0 28 2
40 4 28 2 -13 2 -35 0 -50z m6190 25 c-3 -7 -5 -2 -5 12 0 14 2 19 5 13 2 -7
2 -19 0 -25z m543 7 c0 -20 -8 -22 -97 -29 -60 -5 -73 -4 -73 8 0 10 15 17 43
20 23 3 53 7 67 10 50 7 60 6 60 -9z m-7127 -6 c18 1 27 -4 27 -13 0 -12 -12
-14 -57 -9 -32 2 -65 7 -73 10 -8 4 -18 7 -22 7 -3 1 -10 5 -15 10 -4 5 18 5
52 1 33 -4 72 -7 88 -6z m-703 -9 c0 -5 -2 -10 -4 -10 -3 0 -8 5 -11 10 -3 6
-1 10 4 10 6 0 11 -4 11 -10z m1087 -132 c-2 -18 -4 -6 -4 27 0 33 2 48 4 33
2 -15 2 -42 0 -60z m6210 50 c-3 -7 -5 -2 -5 12 0 14 2 19 5 13 2 -7 2 -19 0
-25z m-5957 -33 c0 -5 -5 -3 -10 5 -5 8 -10 20 -10 25 0 6 5 3 10 -5 5 -8 10
-19 10 -25z m6510 -30 c0 -12 -16 -15 -97 -15 -84 1 -95 3 -80 14 10 8 48 14
97 15 66 1 80 -1 80 -14z m-7160 -5 c0 -6 -25 -9 -57 -9 -48 1 -53 3 -28 9 45
11 85 11 85 0z m30 6 c0 -3 -4 -8 -10 -11 -5 -3 -10 -1 -10 4 0 6 5 11 10 11
6 0 10 -2 10 -4z m7620 -6 c0 -6 -35 -10 -87 -9 -59 0 -81 3 -68 9 28 12 155
12 155 0z m-8510 -35 c-7 -8 -16 -15 -21 -15 -5 0 -1 9 8 20 9 11 19 17 21 15
3 -3 -1 -11 -8 -20z m8017 -101 c6 -17 -27 -22 -106 -16 -52 3 -71 8 -71 19 0
11 18 13 87 11 53 -2 88 -7 90 -14z m-6760 -81 c-3 -10 -5 -4 -5 12 0 17 2 24
5 18 2 -7 2 -21 0 -30z m-1220 -25 c-2 -13 -4 -5 -4 17 -1 22 1 32 4 23 2 -10
2 -28 0 -40z m1466 -49 c-4 -4 -6 13 -3 39 l5 47 3 -39 c2 -21 0 -42 -5 -47z
m368 28 c-10 -9 -11 -8 -5 6 3 10 9 15 12 12 3 -3 0 -11 -7 -18z m6501 -104
c-5 -142 -41 -367 -98 -603 -48 -199 -169 -554 -185 -544 -5 3 -6 -2 -3 -11 9
-23 -202 -439 -300 -590 -73 -113 -142 -209 -120 -166 5 9 3 12 -5 7 -6 -4 -9
-12 -6 -17 7 -10 -114 -169 -129 -169 -5 0 -1 7 10 16 13 10 15 17 7 20 -7 3
-10 13 -7 22 4 11 1 10 -7 -3 -6 -11 -21 -30 -31 -42 -11 -12 -17 -26 -13 -33
3 -6 3 -10 -2 -9 -21 4 -24 -2 -12 -18 12 -16 12 -17 -2 -5 -28 21 -55 3 -50
-35 1 -7 -3 -13 -9 -13 -5 0 -10 6 -10 13 0 8 -3 7 -10 -3 -6 -9 -5 -17 2 -21
9 -6 8 -12 -3 -25 -9 -11 -2 -9 19 6 31 23 43 50 21 50 -5 0 -7 5 -4 10 3 6
11 10 16 10 6 0 7 -5 3 -11 -4 -8 1 -9 17 -4 18 6 10 -7 -33 -56 -31 -35 -65
-71 -75 -80 -10 -9 -31 -33 -46 -53 -16 -20 -34 -35 -40 -33 -18 6 -15 66 5
84 12 10 18 12 18 4 0 -7 5 -9 11 -6 6 4 8 14 4 23 -5 14 -4 14 12 0 13 -12
23 -14 36 -7 22 13 13 29 -13 24 -36 -7 -29 10 34 78 34 37 60 67 57 67 -2 0
8 13 24 30 15 16 32 27 36 24 5 -3 7 1 4 8 -2 7 13 33 35 58 28 32 39 40 40
27 0 -11 -5 -16 -12 -12 -7 4 -4 -1 6 -9 25 -20 29 -15 16 19 -9 23 -6 32 18
63 16 21 34 47 41 60 7 12 16 20 21 17 6 -3 7 0 5 7 -3 8 3 23 13 33 10 11 28
37 41 58 13 21 33 48 45 59 11 12 15 18 9 14 -7 -4 1 16 19 43 31 50 46 66 34
35 -3 -8 -2 -12 4 -9 6 3 10 1 10 -6 0 -7 3 -10 6 -7 3 4 1 16 -5 27 -10 17
-2 39 48 138 126 253 178 381 258 643 14 47 29 90 34 96 9 11 -7 19 -61 30 -8
2 -69 19 -134 39 -66 19 -127 35 -136 35 -11 0 -22 -17 -33 -54 -16 -50 -15
-92 2 -81 4 2 8 -2 8 -11 0 -9 -9 -13 -24 -12 -21 3 -27 -7 -68 -126 -35 -99
-42 -132 -33 -138 9 -5 8 -8 -4 -8 -10 0 -18 -5 -18 -11 0 -5 -4 -8 -9 -4 -5
3 -13 0 -17 -6 -4 -8 -3 -9 4 -5 19 11 14 -9 -9 -38 -11 -14 -18 -26 -14 -26
3 0 1 -9 -5 -19 -7 -14 -6 -27 5 -48 13 -24 20 -25 16 -1 0 4 6 5 15 1 12 -4
13 -8 3 -13 -8 -6 -5 -11 10 -19 14 -8 21 -8 21 -1 0 7 8 6 23 -2 12 -7 26
-12 30 -13 4 0 11 -4 15 -10 4 -5 12 -11 17 -12 6 -1 17 -4 26 -8 11 -4 22 10
44 55 32 68 46 75 17 9 -28 -62 -33 -81 -22 -74 16 10 11 -31 -5 -45 -12 -10
-16 -9 -20 3 -4 8 -22 23 -41 33 -19 10 -34 22 -34 27 0 4 -5 5 -12 1 -7 -5
-8 -3 -3 6 5 8 3 11 -6 8 -8 -3 -27 2 -44 10 -16 9 -33 16 -37 17 -3 0 -10 3
-14 8 -18 17 -41 5 -53 -28 -7 -19 -17 -35 -22 -35 -6 0 -8 -4 -5 -8 2 -4 1
-14 -4 -22 -9 -15 14 -50 33 -50 5 0 45 -20 88 -44 43 -25 77 -41 76 -37 -3
11 53 111 63 111 20 0 21 -24 2 -50 -12 -15 -24 -40 -28 -54 -3 -14 -12 -30
-19 -34 -6 -4 -18 -18 -24 -31 -10 -17 -16 -20 -24 -12 -9 9 -6 17 13 31 24
19 25 20 3 20 -12 0 -28 6 -35 13 -11 11 -47 27 -165 74 -6 2 -39 -41 -73 -97
-55 -88 -64 -99 -79 -88 -14 12 -14 11 -2 -4 11 -15 8 -24 -25 -70 -22 -29
-39 -55 -39 -58 -1 -3 -6 -15 -13 -27 -10 -18 -10 -23 -1 -23 7 0 9 -3 6 -7
-4 -3 -17 2 -29 13 -19 17 -21 17 -15 2 3 -10 1 -20 -5 -24 -6 -4 -8 -3 -4 4
3 6 0 17 -8 25 -8 8 -12 18 -8 22 4 4 1 5 -7 3 -9 -2 -16 6 -18 17 -1 11 0 14
3 7 4 -9 12 -5 26 13 10 14 16 30 12 36 -5 9 -11 7 -20 -6 -8 -10 -25 -32 -40
-48 -28 -31 -32 -54 -19 -101 6 -21 5 -27 -4 -22 -6 4 -11 17 -11 30 0 13 -6
23 -15 23 -8 0 -15 -4 -15 -9 0 -5 -17 -25 -37 -43 -21 -19 -33 -35 -28 -35 6
0 17 6 25 13 12 10 12 9 1 -5 -9 -12 -10 -22 -2 -37 14 -25 14 -31 1 -31 -5 0
-10 8 -10 19 0 10 -7 24 -15 31 -14 12 -12 17 13 44 42 45 169 226 242 344 35
56 67 102 72 102 4 0 7 3 6 8 -1 4 37 86 84 182 88 178 178 408 219 558 16 60
26 82 38 81 28 0 152 -55 144 -63 -4 -4 0 -4 8 -1 9 3 29 0 45 -6 16 -7 32
-12 36 -11 10 2 164 -45 188 -58 12 -6 23 -10 25 -8 2 2 20 73 39 158 39 170
71 382 81 532 l7 96 32 -13 31 -14 -3 -88z m-7479 100 c-7 -2 -21 -2 -30 0
-10 3 -4 5 12 5 17 0 24 -2 18 -5z m7090 -9 c9 -3 17 -12 17 -21 0 -11 -8 -14
-37 -9 -21 3 -59 8 -85 12 -33 4 -48 11 -48 21 0 12 12 13 68 8 37 -4 75 -9
85 -11z m-7613 -7 c-14 -8 -27 -12 -30 -10 -7 6 23 23 40 23 8 0 4 -6 -10 -13z
m1485 -7 c3 -5 1 -10 -4 -10 -6 0 -11 5 -11 10 0 6 2 10 4 10 3 0 8 -4 11 -10z
m-5 -35 c-7 -8 -17 -15 -23 -15 -6 0 -2 7 9 15 25 19 30 19 14 0z m-1488 -33
c3 -9 2 -26 -2 -37 -6 -15 -8 -10 -8 18 0 40 3 47 10 19z m64 -216 c-8 -6 -17
-31 -20 -56 -4 -32 -3 -39 3 -25 5 11 10 31 10 43 1 37 26 20 28 -19 l1 -34
-8 30 -8 30 -2 -32 c-2 -18 -4 -41 -4 -50 -1 -10 -5 -21 -9 -24 -5 -3 -5 -19
-1 -35 6 -25 8 -26 15 -9 4 13 6 6 4 -20 -5 -70 -7 -71 -21 -10 -7 33 -10 68
-7 79 3 10 1 16 -4 13 -11 -7 -48 229 -40 258 2 11 5 3 6 -18 1 -42 21 -43 21
-1 0 17 4 23 12 18 8 -5 9 2 5 23 -3 16 -3 41 1 54 4 16 11 -16 20 -90 11 -98
11 -114 -2 -125z m1440 219 c-8 -9 -12 -23 -9 -33 5 -13 3 -14 -6 -6 -14 13 1
54 20 54 6 0 4 -7 -5 -15z m-1473 -20 c-3 -9 -8 -14 -10 -11 -3 3 -2 9 2 15 9
16 15 13 8 -4z m1502 6 c3 -5 2 -12 -3 -15 -5 -3 -9 1 -9 9 0 17 3 19 12 6z
m4914 -89 c-6 -29 -15 -55 -21 -58 -6 -4 -8 1 -5 12 3 11 11 38 18 62 17 57
22 47 8 -16z m-6762 16 c-3 -8 -6 -5 -6 6 -1 11 2 17 5 13 3 -3 4 -12 1 -19z
m7876 11 c31 -6 58 -18 61 -25 7 -17 -8 -17 -90 -3 -70 12 -109 39 -57 39 16
0 55 -5 86 -11z m-6826 -101 c-3 -8 -6 -5 -6 6 -1 11 2 17 5 13 3 -3 4 -12 1
-19z m5673 -59 c-14 -39 -18 -44 -14 -19 8 44 23 84 29 78 3 -2 -4 -29 -15
-59z m-5659 -1 c6 -10 4 -18 -4 -21 -8 -3 -13 8 -14 32 -1 20 1 29 4 21 3 -8
10 -22 14 -32z m6774 1 c55 -13 70 -22 61 -37 -6 -11 -134 13 -150 28 -13 12
3 31 22 26 10 -3 40 -10 67 -17z m-6764 -68 c7 11 9 9 9 -8 0 -12 -4 -24 -9
-27 -9 -6 -22 28 -20 54 1 8 4 4 6 -9 4 -19 7 -21 14 -10z m-661 -47 c0 -3 -7
-1 -15 6 -8 7 -15 17 -15 22 0 5 7 3 15 -6 8 -8 15 -18 15 -22z m6771 -6 c26
-29 24 -56 -7 -85 -23 -22 -28 -23 -48 -10 -11 8 -27 26 -34 41 -29 58 46 104
89 54z m-6924 -10 c-3 -8 -6 -5 -6 6 -1 11 2 17 5 13 3 -3 4 -12 1 -19z m801
-88 c0 -19 -3 -16 -13 15 -18 54 -18 91 0 45 7 -19 13 -46 13 -60z m-138 70
c0 -5 -4 -10 -10 -10 -5 0 -10 5 -10 10 0 6 5 10 10 10 6 0 10 -4 10 -10z
m6844 -11 c-5 -9 27 -21 34 -14 3 3 -1 5 -8 5 -7 0 -11 2 -8 5 9 9 38 -6 32
-16 -3 -6 6 -8 20 -5 19 3 26 0 26 -11 0 -16 -3 -16 -92 8 -21 5 -38 14 -38
20 0 6 -4 7 -10 4 -5 -3 -10 -2 -10 4 0 6 13 9 29 8 16 -1 27 -5 25 -8z
m-6683 -89 c-9 -41 -6 -69 10 -80 4 -3 4 -11 0 -18 -5 -8 -12 2 -20 29 -10 33
-10 50 1 86 16 54 22 42 9 -17z m414 50 c-3 -5 -12 -10 -18 -10 -7 0 -6 4 3
10 19 12 23 12 15 0z m-1218 -22 c-3 -8 -6 -5 -6 6 -1 11 2 17 5 13 3 -3 4
-12 1 -19z m155 -30 c-8 -8 -9 -4 -5 13 4 13 8 18 11 10 2 -7 -1 -18 -6 -23z
m674 -25 c-9 -21 -14 -27 -10 -13 3 14 6 36 6 49 0 16 3 20 10 13 7 -7 5 -23
-6 -49z m-719 -5 c-3 -8 -6 -5 -6 6 -1 11 2 17 5 13 3 -3 4 -12 1 -19z m73
-52 c0 -26 -6 -18 -14 19 -5 22 -4 26 4 15 5 -8 10 -24 10 -34z m6220 14 c28
-26 32 -35 26 -63 -7 -39 -57 -87 -90 -87 -25 0 -80 44 -89 73 -4 9 -2 28 3
42 27 70 95 86 150 35z m-5770 10 c-8 -5 -19 -10 -25 -10 -5 0 -3 5 5 10 8 5
20 10 25 10 6 0 3 -5 -5 -10z m45 -10 c-3 -5 -12 -10 -18 -10 -7 0 -6 4 3 10
19 12 23 12 15 0z m-80 -9 c3 -5 0 -13 -6 -17 -7 -4 -9 -3 -5 4 3 5 0 13 -6
15 -9 4 -10 6 -1 6 6 1 14 -3 18 -8z m-25 -29 c0 -4 -11 -8 -26 -8 -23 -2 -24
-1 -7 11 17 13 33 11 33 -3z m-100 -13 c-12 -8 -8 -9 15 -5 l30 5 -30 -14
c-16 -8 -44 -14 -62 -15 -17 0 -33 -4 -35 -9 -1 -5 -16 -12 -33 -15 -24 -5
-26 -4 -10 3 14 7 16 10 5 11 -27 2 84 45 125 49 6 0 3 -4 -5 -10z m353 -4
c-3 -9 -8 -14 -10 -11 -3 3 -2 9 2 15 9 16 15 13 8 -4z m965 -77 c-33 -25 -51
-22 -25 5 12 13 25 22 30 20 4 -2 8 6 8 19 2 23 2 23 6 -1 4 -17 -2 -30 -19
-43z m-1578 13 c0 -11 -3 -11 -14 -1 -8 6 -12 18 -9 27 5 12 7 12 14 1 5 -7 9
-19 9 -27z m-63 -3 c-3 -8 -6 -5 -6 6 -1 11 2 17 5 13 3 -3 4 -12 1 -19z m173
8 c0 -2 -9 -6 -20 -9 -11 -3 -18 -1 -14 4 5 9 34 13 34 5z m517 -18 c-3 -8 -6
-5 -6 6 -1 11 2 17 5 13 3 -3 4 -12 1 -19z m674 12 c24 -14 26 -49 2 -46 -10
2 -21 -2 -25 -7 -9 -14 -22 38 -13 52 8 14 11 14 36 1z m5056 -5 c-4 -8 -1
-17 5 -21 7 -5 8 -2 3 6 -5 8 -4 11 3 6 15 -9 4 -36 -14 -36 -8 0 -14 -5 -14
-11 0 -7 -9 0 -20 14 -24 31 -17 57 17 57 18 0 24 -4 20 -15z m-5969 -20 c-3
-3 -9 2 -12 12 -6 14 -5 15 5 6 7 -7 10 -15 7 -18z m-358 5 c-8 -5 -19 -10
-25 -10 -5 0 -3 5 5 10 8 5 20 10 25 10 6 0 3 -5 -5 -10z m1475 0 c3 -6 -1 -7
-9 -4 -18 7 -21 14 -7 14 6 0 13 -4 16 -10z m-808 -23 c-3 -7 1 -21 9 -32 8
-10 14 -24 14 -29 0 -6 -8 3 -19 19 -16 26 -18 55 -4 55 3 0 3 -6 0 -13z
m-728 -52 c0 -5 -4 -3 -9 5 -5 8 -9 22 -9 30 0 16 17 -16 18 -35z m6162 -123
c4 -74 3 -164 -4 -217 -10 -88 -12 -92 -65 -160 -63 -80 -93 -114 -139 -160
-18 -17 -33 -36 -33 -42 0 -5 -10 -18 -22 -29 l-21 -19 19 34 c10 18 28 40 40
50 11 9 29 30 39 46 10 17 34 45 52 62 18 18 33 37 33 43 0 5 18 29 40 51 l40
41 0 221 c0 121 3 217 7 213 4 -4 11 -64 14 -134z m-5852 87 c-46 -16 -88 -27
-94 -26 -5 2 5 7 23 11 19 5 29 12 26 18 -4 7 -2 8 5 4 14 -9 53 3 46 14 -7
12 13 17 48 12 26 -4 19 -9 -54 -33z m7134 13 c26 -10 44 -22 40 -26 -5 -5 1
-6 12 -2 22 6 54 -9 42 -20 -9 -9 -68 5 -153 37 -48 18 -55 24 -39 30 22 8 30
7 98 -19z m-7386 -4 c-3 -8 -6 -5 -6 6 -1 11 2 17 5 13 3 -3 4 -12 1 -19z
m-50 -10 c-3 -8 -6 -5 -6 6 -1 11 2 17 5 13 3 -3 4 -12 1 -19z m717 -40 c3
-16 4 -28 1 -28 -5 0 -35 67 -35 78 0 16 28 -26 34 -50z m840 -308 c9 -45 11
-55 20 -70 4 -8 -4 -3 -17 12 -26 27 -26 28 -25 220 l1 193 8 -165 c5 -91 10
-176 13 -190z m-793 310 c5 0 9 -5 9 -11 0 -8 -5 -8 -15 1 -8 7 -14 20 -14 29
1 13 2 13 6 -1 2 -10 9 -18 14 -18z m-754 -2 c-3 -8 -6 -5 -6 6 -1 11 2 17 5
13 3 -3 4 -12 1 -19z m57 6 c3 -8 2 -12 -4 -9 -6 3 -10 10 -10 16 0 14 7 11
14 -7z m26 -78 c0 -5 -7 -3 -15 4 -8 7 -15 20 -15 28 0 13 3 12 15 -4 8 -10
15 -23 15 -28z m6556 32 c5 -7 3 -8 -6 -3 -10 6 -12 4 -7 -9 4 -10 3 -15 -3
-11 -13 8 -13 35 -1 35 6 0 13 -5 17 -12z m-5592 -14 c5 -12 2 -15 -11 -10
-14 6 -13 2 5 -17 12 -13 22 -27 22 -33 0 -5 -11 3 -25 18 -28 30 -31 44 -12
51 6 3 13 6 13 6 1 1 5 -6 8 -15z m-260 -10 c3 -8 2 -12 -4 -9 -6 3 -10 10
-10 16 0 14 7 11 14 -7z m5842 -43 c-15 -23 -47 -80 -72 -128 -86 -165 -116
-213 -126 -206 -7 3 -8 1 -4 -5 4 -6 -23 -58 -60 -114 -75 -116 -119 -170
-130 -160 -4 4 -4 1 0 -6 9 -14 -24 -57 -154 -201 -46 -52 -86 -89 -88 -82 -2
6 -8 11 -14 11 -5 0 -7 -9 -3 -19 4 -14 -16 -38 -87 -104 -51 -47 -97 -87
-103 -88 -5 -1 -15 -9 -22 -18 -10 -14 -12 -13 -10 6 0 12 4 20 8 18 3 -3 15
5 25 16 11 12 17 22 14 23 -6 2 72 73 83 75 4 1 6 3 5 4 -5 6 25 38 45 49 15
8 18 7 12 -2 -5 -8 -3 -11 6 -8 8 3 14 14 14 25 0 19 60 82 78 83 5 0 5 5 1
12 -5 7 -2 9 8 5 10 -3 15 0 14 11 0 9 4 16 11 15 6 -2 14 5 17 15 3 9 16 22
28 27 13 6 22 17 20 24 -4 18 58 82 71 74 6 -3 7 -1 3 5 -9 15 12 54 25 46 6
-3 9 0 7 7 -4 20 42 90 54 83 6 -4 8 -2 4 4 -3 5 4 23 17 39 12 15 28 41 35
56 7 15 17 25 22 22 5 -3 7 0 5 8 -6 13 75 145 108 179 9 9 17 21 17 27 0 6 5
11 11 11 5 0 8 4 4 10 -6 10 62 153 76 158 4 2 5 11 2 20 -4 15 -3 15 7 2 10
-13 12 -13 23 2 24 35 17 8 -7 -31z m-6571 -30 c-3 -5 0 -22 6 -38 7 -21 7
-25 -1 -17 -6 6 -12 22 -14 35 -1 13 -8 35 -15 49 l-13 25 21 -23 c12 -12 20
-26 16 -31z m20 39 c3 -5 2 -10 -4 -10 -5 0 -13 5 -16 10 -3 6 -2 10 4 10 5 0
13 -4 16 -10z m725 0 c0 -5 -5 -10 -11 -10 -5 0 -7 5 -4 10 3 6 8 10 11 10 2
0 4 -4 4 -10z m282 -49 c-3 -8 -1 -12 5 -8 5 3 19 -14 31 -38 17 -34 18 -45 8
-45 -18 0 -48 65 -52 110 -2 26 -1 30 5 15 5 -11 6 -26 3 -34z m-582 -56 c0
-10 -71 -34 -86 -28 -15 5 -15 7 0 15 9 5 20 7 25 4 5 -4 20 -2 33 3 29 12 28
12 28 6z m6779 -25 c4 0 8 -6 8 -13 0 -8 -6 -14 -13 -14 -7 0 -10 5 -7 10 4 6
0 8 -9 5 -9 -4 -15 0 -15 8 0 9 6 13 14 9 8 -3 18 -5 22 -5z m-6129 -26 c0 -8
-19 -13 -24 -6 -3 5 1 9 9 9 8 0 15 -2 15 -3z m6190 -14 c-12 -8 -12 -10 -1
-10 8 0 12 -3 8 -6 -3 -4 -14 -3 -24 0 -15 6 -15 8 -3 16 8 6 20 10 25 10 6 0
3 -5 -5 -10z m-7006 -12 c-3 -4 -11 -5 -19 -1 -21 7 -19 12 4 10 11 0 18 -5
15 -9z m824 -1 c-1 -2 3 -11 11 -20 9 -11 10 -17 2 -17 -6 0 -11 3 -12 8 0 4
-2 15 -4 25 -2 11 -1 17 2 14 2 -3 3 -7 1 -10z m-850 -28 c13 -23 13 -23 -2
-5 -15 19 -16 19 -16 1 0 -23 -9 -15 -15 14 -5 29 14 23 33 -10z m6051 -56 c1
-43 4 -53 19 -54 9 0 12 -3 6 -5 -6 -3 -22 0 -35 5 -13 5 -19 10 -14 10 6 1 9
29 8 68 -2 47 0 62 6 48 5 -11 10 -44 10 -72z m1014 7 c-3 -11 -9 -20 -15 -20
-5 0 -4 9 2 20 6 11 12 20 14 20 2 0 2 -9 -1 -20z m-6476 -55 c0 -8 -4 -12 -9
-9 -5 3 -6 10 -3 15 9 13 12 11 12 -6z m-407 -1 c0 -8 -19 -13 -24 -6 -3 5 1
9 9 9 8 0 15 -2 15 -3z m795 -14 c3 -5 1 -10 -4 -10 -6 0 -11 5 -11 10 0 6 2
10 4 10 3 0 8 -4 11 -10z m346 -7 c13 -16 12 -17 -3 -4 -17 13 -22 21 -14 21
2 0 10 -8 17 -17z m349 8 c0 -5 -7 -11 -15 -15 -9 -3 -15 0 -15 9 0 8 7 15 15
15 8 0 15 -4 15 -9z m3730 -8 c0 -13 -3 -14 -12 -5 -8 8 -15 9 -25 0 -11 -8
-12 -7 -7 6 8 21 44 21 44 -1z m-5314 -2 c-4 -5 0 -12 6 -14 8 -3 6 -6 -5 -6
-10 -1 -15 -5 -12 -11 3 -5 1 -10 -4 -10 -6 0 -11 -7 -11 -17 0 -22 -10 -11
-15 17 -2 12 -2 20 2 16 3 -3 12 3 20 14 14 20 30 29 19 11z m882 -32 c3 -12
2 -12 -6 0 -6 8 -12 9 -16 3 -3 -6 -2 -13 4 -17 5 -3 10 -11 10 -18 0 -14 -29
24 -30 40 0 16 33 9 38 -8z m743 -1 c7 -13 5 -15 -11 -11 -30 8 -45 30 -19 28
12 -1 25 -9 30 -17z m3664 12 c-3 -5 -12 -10 -18 -10 -7 0 -6 4 3 10 19 12 23
12 15 0z m-30 -19 c3 -5 2 -12 -3 -15 -5 -3 -9 1 -9 9 0 17 3 19 12 6z m-3599
-33 c3 -4 -1 -5 -10 -4 -8 1 -18 5 -22 8 -3 4 1 5 10 4 8 -1 18 -5 22 -8z
m-746 -30 c9 -3 10 -7 3 -11 -6 -4 -19 3 -29 16 -11 12 -12 17 -4 11 8 -6 22
-13 30 -16z m385 2 c10 -11 16 -20 13 -20 -3 0 -13 9 -23 20 -10 11 -16 20
-13 20 3 0 13 -9 23 -20z m-1280 -2 c5 4 5 1 1 -6 -6 -10 -11 -10 -22 -1 -8 6
-14 14 -14 16 0 3 6 0 13 -6 8 -6 18 -7 22 -3z m1679 -1 c4 4 4 -1 0 -11 -5
-13 -4 -17 3 -13 6 4 16 0 22 -7 7 -8 8 -17 3 -20 -9 -5 -21 6 -52 49 -14 18
-13 19 1 8 9 -7 19 -10 23 -6z m-1474 -1 c0 -3 -4 -8 -10 -11 -5 -3 -10 -1
-10 4 0 6 5 11 10 11 6 0 10 -2 10 -4z m4950 -26 c-6 -11 -16 -20 -22 -20 -6
0 -3 9 7 20 10 11 20 20 22 20 2 0 -1 -9 -7 -20z m-5005 -10 c-3 -5 -12 -10
-18 -10 -7 0 -6 4 3 10 19 12 23 12 15 0z m805 -43 c5 2 7 -4 4 -12 -4 -8 -2
-15 4 -15 5 0 13 -7 16 -16 11 -28 -16 -1 -53 53 -23 34 -25 39 -7 18 15 -16
31 -29 36 -28z m385 25 c-3 -3 0 -11 6 -19 17 -20 5 -16 -14 5 -15 16 -15 19
-2 19 8 0 13 -3 10 -5z m402 -16 c-1 -6 3 -10 10 -9 6 1 17 -5 25 -15 12 -15
11 -16 -4 -3 -23 17 -23 3 -1 -21 9 -10 14 -18 10 -18 -3 0 -19 17 -36 38 -19
25 -25 39 -16 39 8 0 13 -5 12 -11z m3347 -27 c-38 -40 -52 -36 -17 5 15 18
32 31 36 28 5 -2 -4 -17 -19 -33z m-5194 16 c7 -8 9 -15 6 -15 -4 0 -14 7 -22
15 -9 8 -11 15 -6 15 5 0 15 -7 22 -15z m150 -11 c0 -8 -19 -13 -24 -6 -3 5 1
9 9 9 8 0 15 -2 15 -3z m1765 -47 c1 -7 7 -11 14 -9 7 1 10 -2 6 -8 -3 -5 0
-10 8 -10 15 0 44 -28 47 -45 1 -5 6 -9 11 -7 5 1 8 -4 7 -10 -2 -7 5 -13 14
-13 10 0 23 -7 30 -15 11 -12 10 -12 -6 0 -18 14 -19 13 -12 -5 4 -12 -10 -3
-38 24 -25 24 -43 48 -40 53 3 4 -1 8 -9 8 -17 0 -40 25 -43 47 -2 8 1 12 4 8
4 -4 7 -12 7 -18z m4965 -5 c0 -4 -7 -16 -15 -26 -22 -29 -40 -7 -19 22 14 20
35 22 34 4z m-1737 -1 c-4 -3 -24 -20 -43 -36 l-34 -30 29 36 c17 19 36 35 43
35 7 1 9 -2 5 -5z m370 -26 c-15 -19 -32 -35 -36 -35 -11 0 45 68 56 69 4 1
-5 -15 -20 -34z m2638 12 c-10 -9 -11 -8 -5 6 3 10 9 15 12 12 3 -3 0 -11 -7
-18z m-7032 -21 c-3 -3 -11 5 -18 17 -13 21 -12 21 5 5 10 -10 16 -20 13 -22z
m6637 -78 l2 -103 -10 89 c-8 77 -6 116 4 116 2 0 4 -46 4 -102z m-6201 84
c-3 -3 2 -14 12 -24 24 -27 10 -22 -15 5 -17 18 -19 24 -7 24 8 0 13 -3 10 -5z
m-400 -19 c-2 -10 -4 -19 -4 -21 -1 -2 -6 0 -11 3 -8 5 -7 11 1 21 15 18 18
18 14 -3z m7075 -6 c0 -2 -10 -12 -21 -23 -22 -19 -22 -19 -8 4 12 19 29 30
29 19z m-3180 -27 c0 -5 -8 -10 -17 -10 -15 0 -16 2 -3 10 19 12 20 12 20 0z
m370 -33 l-34 -32 30 36 c16 20 31 34 33 32 3 -2 -10 -18 -29 -36z m-4239 6
c13 -16 12 -17 -3 -4 -17 13 -22 21 -14 21 2 0 10 -8 17 -17z m4999 -72 c-24
-28 -45 -51 -46 -51 -2 0 -11 11 -20 25 -16 24 -16 27 2 39 10 8 22 12 26 10
4 -2 10 1 14 7 4 8 3 9 -4 5 -22 -14 -12 23 10 38 21 15 24 14 42 -3 18 -19
18 -20 -24 -70z m-1156 67 c-3 -5 -10 -6 -15 -3 -5 4 -18 -10 -30 -29 -12 -20
-24 -36 -28 -36 -3 0 -8 -30 -9 -67 -2 -38 -9 -71 -15 -75 -9 -6 -9 -8 1 -8 6
0 12 -5 12 -11 0 -5 -4 -8 -9 -5 -5 4 -12 0 -15 -6 -6 -14 -1 111 6 150 5 27
73 99 93 99 8 0 12 -4 9 -9z m-4961 -13 c-3 -9 -8 -14 -10 -11 -3 3 -2 9 2 15
9 16 15 13 8 -4z m1155 -30 c-3 -3 -9 2 -12 12 -6 14 -5 15 5 6 7 -7 10 -15 7
-18z m849 18 c-4 -3 3 -18 15 -32 l23 -26 -27 24 c-24 21 -29 41 -11 41 4 0 3
-3 0 -7z m-1192 -23 c10 -11 16 -20 13 -20 -3 0 -13 9 -23 20 -10 11 -16 20
-13 20 3 0 13 -9 23 -20z m4955 16 c0 -3 -4 -8 -10 -11 -5 -3 -10 -1 -10 4 0
6 5 11 10 11 6 0 10 -2 10 -4z m-455 -14 c-6 -4 -23 -18 -40 -32 l-30 -25 29
33 c17 17 34 32 40 32 6 0 6 -3 1 -8z m-4124 -29 c13 -16 12 -17 -3 -4 -17 13
-22 21 -14 21 2 0 10 -8 17 -17z m5832 -31 c-6 -9 -16 -16 -22 -14 -6 1 -11
-3 -11 -10 0 -6 -2 -9 -5 -6 -3 3 2 19 12 36 12 20 21 28 28 21 6 -6 6 -15 -2
-27z m-5793 24 c0 -2 -8 -10 -17 -17 -16 -13 -17 -12 -4 4 13 16 21 21 21 13z
m4808 -33 c-6 -7 -7 -13 -2 -13 4 0 3 -5 -4 -12 -7 -7 -12 -16 -12 -22 0 -5 6
-1 14 9 8 11 12 23 10 27 -3 5 -3 8 0 8 16 0 13 -21 -7 -46 -21 -28 -48 -37
-63 -21 -4 4 -13 2 -21 -4 -28 -24 -11 4 34 57 32 36 49 50 54 42 4 -7 3 -18
-3 -25z m-6341 -8 c0 -8 -4 -12 -9 -9 -5 3 -6 10 -3 15 9 13 12 11 12 -6z
m1558 -25 c10 -11 16 -20 13 -20 -3 0 -13 9 -23 20 -10 11 -16 20 -13 20 3 0
13 -9 23 -20z m3527 -12 c-8 -8 -9 -4 -5 13 4 13 8 18 11 10 2 -7 -1 -18 -6
-23z m1467 17 c1 -8 2 -24 3 -35 2 -21 10 -25 22 -12 4 4 12 7 18 7 6 0 17 10
26 23 9 14 10 22 3 22 -6 0 -11 -4 -11 -10 0 -14 -17 -12 -23 3 -3 9 7 12 34
12 l38 0 -27 -30 c-37 -39 -62 -80 -62 -100 0 -9 -4 -14 -8 -11 -8 5 -133
-124 -185 -190 l-19 -25 58 -62 c33 -34 68 -70 79 -79 11 -10 16 -17 12 -18
-14 0 -117 92 -112 100 3 4 -2 13 -10 20 -8 7 -15 9 -15 5 0 -4 -6 -3 -13 3
-14 12 -60 5 -52 -8 3 -4 -19 -29 -47 -54 -52 -46 -90 -95 -83 -105 2 -3 -7
-6 -20 -6 -16 0 -20 4 -14 11 5 6 5 14 1 18 -4 4 -2 7 3 6 22 -5 36 1 29 12
-4 7 -3 8 4 4 7 -4 12 -1 12 7 0 8 7 17 15 21 8 3 15 12 15 20 0 7 12 17 26
20 16 4 30 19 39 41 9 21 23 35 37 37 12 2 23 9 26 17 3 9 0 11 -9 5 -11 -6
-12 -5 -2 8 13 15 8 28 -9 28 -5 0 -7 -4 -4 -8 3 -5 -1 -9 -9 -9 -19 0 -19 5
0 24 8 8 13 19 10 24 -4 5 -1 9 5 9 7 0 10 -7 6 -15 -6 -17 9 -21 19 -5 3 6
11 10 18 10 8 0 8 -3 -1 -12 -7 -7 -12 -21 -11 -33 0 -19 1 -19 9 2 5 12 17
26 27 32 17 10 17 10 1 11 -10 0 -18 5 -18 11 0 6 9 9 20 6 11 -3 18 -1 14 4
-3 5 -1 9 4 9 6 0 8 9 5 20 -3 11 0 27 7 35 10 12 10 15 -1 15 -10 0 -10 4 2
15 15 16 54 11 44 -5 -3 -5 4 -8 15 -7 20 1 20 2 4 14 -10 7 -22 13 -27 13 -4
0 -5 5 -1 11 4 8 9 7 15 -2 8 -12 10 -12 18 0 5 8 14 10 22 6 7 -5 5 2 -4 16
-25 35 -21 57 4 25 12 -15 24 -25 27 -22 2 3 -1 12 -8 21 -11 13 -10 15 6 10
14 -4 13 -2 -3 6 -12 6 -24 18 -28 27 -4 12 -3 13 10 2 20 -16 32 -5 16 14 -7
8 -10 20 -6 26 8 14 11 13 14 -5z m-1432 -17 c-3 -8 -6 -5 -6 6 -1 11 2 17 5
13 3 -3 4 -12 1 -19z m-4653 -14 c3 -8 2 -12 -4 -9 -6 3 -10 10 -10 16 0 14 7
11 14 -7z m1167 -11 c13 -16 12 -17 -3 -4 -10 7 -18 15 -18 17 0 8 8 3 21 -13z
m4638 -29 c-6 -8 -9 -17 -5 -21 3 -3 6 -2 6 4 0 6 8 14 18 18 9 3 2 -10 -17
-29 -19 -20 -37 -33 -40 -30 -3 3 2 12 12 19 12 8 14 15 8 20 -6 3 -11 1 -11
-5 0 -7 -7 -10 -15 -7 -8 4 -23 -5 -35 -20 -18 -24 -19 -27 -3 -38 19 -14 11
-30 -20 -45 -22 -10 -22 -10 1 6 27 20 28 30 3 37 -14 3 -18 1 -14 -9 3 -8 0
-15 -6 -15 -6 -1 -15 -3 -21 -4 -5 -1 -13 -3 -16 -4 -4 0 0 -9 7 -18 9 -11 10
-14 2 -9 -16 9 -53 -10 -52 -27 0 -9 2 -9 6 1 2 6 9 12 15 12 6 0 6 -6 -2 -15
-7 -8 -16 -12 -22 -9 -11 7 -40 -15 -33 -26 3 -4 -2 -11 -11 -14 -8 -3 -12
-11 -9 -16 4 -6 3 -10 -2 -9 -21 4 -32 -3 -38 -22 -6 -17 -9 -18 -15 -8 -7 11
-13 10 -29 -5 -11 -10 -19 -23 -18 -29 1 -6 -9 -12 -23 -13 l-24 -1 24 19 c62
49 202 181 278 261 55 59 81 80 67 56 -5 -8 0 -7 10 3 21 20 42 13 24 -8z
m171 -19 c-15 -18 1 -20 18 -3 8 8 12 8 12 1 0 -6 -7 -16 -16 -24 -13 -10 -17
-10 -25 2 -8 13 -13 5 -10 -15 3 -16 -21 -35 -36 -29 -11 4 -14 2 -9 -5 4 -7
2 -12 -4 -12 -6 0 -9 -4 -5 -9 3 -6 15 -8 26 -6 17 3 18 1 9 -9 -8 -11 -8 -15
2 -19 7 -2 9 -8 5 -13 -10 -11 -28 16 -20 31 4 5 2 6 -3 2 -9 -9 -10 -13 -13
-42 0 -8 -6 -15 -12 -15 -6 0 -9 7 -5 15 7 19 2 19 -36 -1 -21 -11 -27 -18
-18 -24 8 -5 9 -9 1 -14 -6 -4 -11 -1 -11 6 -1 8 -6 6 -15 -6 -8 -11 -15 -15
-15 -9 0 6 13 22 29 36 17 14 28 27 25 29 -2 3 4 11 13 19 16 13 17 12 4 -3
-15 -19 -5 -23 19 -8 11 7 12 12 3 21 -9 9 -7 16 5 30 9 10 33 35 52 57 19 21
37 37 39 36 2 -2 -2 -10 -9 -19z m-4784 -27 l29 -33 -32 29 c-31 28 -38 36
-30 36 2 0 16 -15 33 -32z m4558 -3 c-4 -8 -11 -15 -16 -15 -6 0 -5 6 2 15 7
8 14 15 16 15 2 0 1 -7 -2 -15z m1028 -7 c-7 -7 -12 -8 -12 -2 0 14 12 26 19
19 2 -3 -1 -11 -7 -17z m1195 -135 c-2 -27 -3 -5 -3 47 0 52 1 74 3 48 2 -27
2 -69 0 -95z m-230 85 c-3 -7 -5 -2 -5 12 0 14 2 19 5 13 2 -7 2 -19 0 -25z
m-5917 3 c0 -5 -7 -14 -15 -21 -8 -7 -12 -17 -9 -24 3 -6 -2 -2 -10 8 -12 14
-13 23 -5 33 13 15 39 18 39 4z m2941 -28 c13 -16 12 -17 -3 -4 -10 7 -18 15
-18 17 0 8 8 3 21 -13z m-3451 -28 c13 -14 21 -25 18 -25 -2 0 -15 11 -28 25
-13 14 -21 25 -18 25 2 0 15 -11 28 -25z m4911 8 c13 -16 12 -17 -3 -4 -10 7
-18 15 -18 17 0 8 8 3 21 -13z m-4165 -100 c-10 -10 -19 5 -10 18 6 11 8 11
12 0 2 -7 1 -15 -2 -18z m3108 -11 c-67 -60 -162 -123 -169 -112 -4 6 -12 7
-18 3 -7 -4 -7 0 1 10 8 9 24 19 35 23 12 4 28 14 35 23 8 9 11 10 7 4 -7 -15
-4 -16 20 -7 11 5 13 9 5 14 -7 5 -6 11 6 21 16 12 17 12 11 -3 -8 -22 6 -23
23 -3 10 12 10 15 0 15 -20 0 -6 10 21 15 12 3 30 11 38 20 8 8 18 15 21 15 3
-1 -14 -18 -36 -38z m-4606 11 c-6 -7 -18 -13 -27 -12 -10 0 -12 2 -3 6 6 2
10 8 8 12 -3 4 4 7 14 7 14 0 16 -3 8 -13z m3987 -3 c3 -5 1 -10 -4 -10 -6 0
-11 5 -11 10 0 6 2 10 4 10 3 0 8 -4 11 -10z m1280 0 c3 -5 -1 -10 -9 -10 -8
0 -18 5 -21 10 -3 6 1 10 9 10 8 0 18 -4 21 -10z m-4365 -16 c0 -8 -19 -13
-24 -6 -3 5 1 9 9 9 8 0 15 -2 15 -3z m4990 2 c0 -2 -8 -10 -17 -17 -16 -13
-17 -12 -4 4 13 16 21 21 21 13z m1517 -138 c-2 -29 -3 -8 -3 47 0 55 1 79 3
53 2 -26 2 -71 0 -100z m-2417 126 c0 -8 -19 -13 -24 -6 -3 5 1 9 9 9 8 0 15
-2 15 -3z m160 -8 c0 -2 -8 -10 -17 -17 -16 -13 -17 -12 -4 4 13 16 21 21 21
13z m-5245 -37 c-4 -5 -12 -9 -18 -8 -9 0 -8 2 1 6 6 2 9 10 6 15 -4 7 -2 8 5
4 6 -4 9 -12 6 -17z m4934 -40 c-15 -9 -32 -2 -24 11 3 5 13 6 21 3 12 -4 13
-8 3 -14z m295 0 c-3 -5 -10 -7 -15 -3 -5 3 -7 10 -3 15 3 5 10 7 15 3 5 -3 7
-10 3 -15z m-5373 -6 c13 -16 12 -17 -3 -4 -10 7 -18 15 -18 17 0 8 8 3 21
-13z m4459 2 c-7 -8 -17 -15 -23 -15 -6 0 -2 7 9 15 25 19 30 19 14 0z m845
-5 c-3 -5 -16 -15 -28 -21 -19 -9 -19 -8 3 10 28 23 34 26 25 11z m35 6 c0 -2
-8 -10 -17 -17 -16 -13 -17 -12 -4 4 13 16 21 21 21 13z m-4035 -34 c-3 -3
-11 0 -18 7 -9 10 -8 11 6 5 10 -3 15 -9 12 -12z m-1338 1 c-4 -3 1 -16 10
-27 18 -21 18 -21 -4 -2 -20 16 -23 36 -6 36 4 0 3 -3 0 -7z m71 -18 c-3 -3
-9 2 -12 12 -6 14 -5 15 5 6 7 -7 10 -15 7 -18z m863 8 c13 -16 12 -17 -3 -4
-17 13 -22 21 -14 21 2 0 10 -8 17 -17z m4179 2 c-7 -9 -15 -13 -19 -10 -3 3
1 10 9 15 21 14 24 12 10 -5z m-470 -7 c0 6 7 12 16 12 11 0 7 -7 -11 -24 -15
-14 -24 -30 -20 -36 3 -5 -1 -13 -9 -16 -9 -3 -13 -10 -10 -15 3 -5 -2 -6 -12
-2 -15 5 -14 7 3 17 11 6 18 16 16 23 -2 6 0 14 6 17 6 4 8 14 5 24 -5 14 -4
15 5 2 7 -10 11 -11 11 -2z m-5873 -20 c-3 -8 -6 -5 -6 6 -1 11 2 17 5 13 3
-3 4 -12 1 -19z m5680 -10 c-3 -7 -5 -2 -5 12 0 14 2 19 5 13 2 -7 2 -19 0
-25z m573 22 c0 -5 -5 -10 -11 -10 -5 0 -7 5 -4 10 3 6 8 10 11 10 2 0 4 -4 4
-10z m-68 -43 c-7 -8 -10 -16 -7 -19 3 -3 -2 -11 -12 -19 -9 -8 -14 -9 -10 -2
4 6 3 14 -2 17 -5 4 -8 -2 -7 -11 4 -24 21 -27 50 -7 37 23 32 10 -5 -17 -22
-15 -34 -18 -41 -11 -8 8 -19 7 -40 -4 -16 -8 -34 -12 -40 -8 -7 5 -8 3 -4 -5
8 -12 -19 -40 -39 -41 -5 0 -3 5 5 11 12 8 10 10 -10 6 -29 -7 -39 -15 89 78
69 51 99 64 73 32z m298 19 c0 -2 -7 -7 -16 -10 -8 -3 -12 -2 -9 4 6 10 25 14
25 6z m-220 -20 c0 -2 -8 -10 -17 -17 -16 -13 -17 -12 -4 4 13 16 21 21 21 13z
m314 -17 c-2 -4 2 -10 8 -12 8 -4 7 -6 -3 -6 -9 -1 -19 5 -22 12 -3 8 1 14 9
14 7 0 11 -4 8 -8z m-5263 -26 c13 -16 12 -17 -3 -4 -10 7 -18 15 -18 17 0 8
8 3 21 -13z m95 -15 l29 -33 -32 29 c-31 28 -38 36 -30 36 2 0 16 -15 33 -32z
m464 28 c0 -2 -8 -10 -17 -17 -16 -13 -17 -12 -4 4 13 16 21 21 21 13z m4550
0 c0 -2 -7 -7 -16 -10 -8 -3 -12 -2 -9 4 6 10 25 14 25 6z m687 -3 c-4 -3 0
-17 8 -30 15 -22 14 -25 -16 -58 -18 -19 -36 -32 -40 -29 -5 3 -9 -2 -9 -11 0
-12 -5 -15 -22 -9 -20 6 -21 5 -10 -9 11 -13 9 -18 -9 -31 -12 -8 -26 -13 -31
-10 -4 3 -8 0 -8 -6 0 -6 -5 -8 -11 -4 -8 5 -8 9 1 14 7 4 8 10 3 13 -6 4 -20
-5 -33 -18 -13 -13 -27 -22 -33 -18 -5 3 -8 0 -5 -7 6 -19 36 -21 42 -3 3 8
11 11 17 7 7 -4 -4 -21 -31 -46 -38 -36 -43 -38 -54 -22 -12 16 -42 12 -32 -5
3 -4 -5 -13 -17 -21 -20 -12 -21 -12 -8 3 7 10 9 17 3 17 -6 0 -22 -13 -35
-30 -14 -16 -31 -30 -37 -30 -6 0 -8 -5 -4 -12 5 -7 3 -8 -6 -3 -13 8 -12 9
74 82 14 13 26 21 26 18 0 -2 33 30 73 72 54 56 76 73 82 63 5 -9 4 -11 -3 -6
-16 10 -15 -7 1 -23 10 -11 10 -13 0 -7 -7 4 -13 3 -13 -3 0 -17 14 -20 33 -6
12 9 15 15 7 20 -8 5 -8 11 1 21 6 7 15 12 19 9 5 -3 12 -1 15 5 4 6 1 9 -7 8
-7 -2 -13 3 -13 10 0 6 5 12 10 13 6 1 19 6 30 12 11 6 27 10 35 9 11 -2 10 2
-4 12 -10 9 -23 13 -29 9 -6 -3 -7 -1 -3 5 4 6 14 8 23 5 12 -5 15 -2 10 9 -5
15 0 28 11 28 3 0 2 -3 -1 -7z m-1457 -33 c-13 -11 -26 -17 -29 -14 -7 6 28
34 42 34 6 0 0 -9 -13 -20z m919 16 c-2 -2 -15 -9 -29 -15 -24 -11 -24 -11 -6
3 16 13 49 24 35 12z m141 -22 c0 4 20 -14 45 -40 25 -26 44 -49 42 -51 -2 -2
-22 16 -45 41 -22 24 -42 42 -45 40 -2 -2 -12 6 -23 18 l-19 23 23 -19 c12
-11 22 -16 22 -12z m-1100 -4 c0 -13 -13 -26 -38 -39 -29 -15 -39 -16 -39 -6
0 7 6 11 14 8 8 -3 11 0 8 8 -4 11 26 39 53 48 1 1 2 -8 2 -19z m530 -4 c0 -2
-8 -10 -17 -17 -16 -13 -17 -12 -4 4 13 16 21 21 21 13z m351 -32 c-17 -14
-31 -33 -31 -42 0 -13 -2 -14 -12 -3 -11 10 -6 18 22 41 19 16 39 30 43 30 5
0 -5 -12 -22 -26z m-396 6 c6 -10 -51 -50 -70 -50 -5 1 7 11 27 24 21 12 35
26 31 29 -3 4 -4 7 0 7 3 0 9 -4 12 -10z m-589 -15 c-11 -8 -25 -15 -30 -15
-6 1 0 7 14 15 32 19 40 18 16 0z m1724 0 c-6 -8 -8 -20 -4 -27 5 -10 4 -10
-6 -1 -11 10 -11 15 0 28 7 8 15 15 17 15 3 0 0 -7 -7 -15z m-1225 -13 c-3 -3
-11 0 -18 7 -9 10 -8 11 6 5 10 -3 15 -9 12 -12z m-4546 -6 c8 -10 8 -16 -3
-25 -10 -8 -16 -9 -21 -1 -4 6 -3 10 2 9 20 -3 25 2 13 16 -7 8 -10 15 -7 15
2 0 10 -6 16 -14z m4501 -1 c-7 -9 -15 -13 -19 -10 -3 3 1 10 9 15 21 14 24
12 10 -5z m-530 -37 c-12 -5 -25 -6 -28 -3 -3 3 0 5 7 5 7 0 10 4 7 9 -4 5 4
7 16 3 l22 -5 -24 -9z m590 8 c0 -2 -7 -7 -16 -10 -8 -3 -12 -2 -9 4 6 10 25
14 25 6z m395 -6 c4 -6 -1 -7 -11 -3 -12 4 -15 3 -10 -5 5 -8 1 -10 -10 -5
-11 4 -15 3 -10 -5 3 -6 2 -13 -3 -16 -5 -4 -8 1 -7 10 4 26 39 43 51 24z
m952 -12 c-3 -8 -6 -5 -6 6 -1 11 2 17 5 13 3 -3 4 -12 1 -19z m1540 -160 c-2
-35 -3 -7 -3 62 0 69 1 97 3 63 2 -35 2 -91 0 -125z m-1754 137 c-28 -35 -43
-44 -43 -24 0 5 5 7 10 4 6 -3 10 -2 10 2 0 12 33 53 43 53 4 0 -5 -16 -20
-35z m-4628 7 c-3 -3 -11 0 -18 7 -9 10 -8 11 6 5 10 -3 15 -9 12 -12z m3334
-1 c-13 -11 -26 -17 -29 -14 -6 6 30 33 43 33 5 0 -1 -9 -14 -19z m-4320 -16
c27 1 30 -1 18 -9 -15 -10 -14 -13 6 -31 12 -11 18 -17 13 -13 -4 3 -14 4 -20
2 -6 -2 -29 15 -51 38 -22 23 -31 35 -20 27 11 -9 35 -15 54 -14z m3792 10 c8
5 11 4 6 0 -4 -5 -29 -9 -55 -10 l-47 -2 35 12 c22 8 37 9 41 2 4 -5 13 -6 20
-2z m1019 -3 c0 -13 -12 -22 -22 -16 -10 6 -1 24 13 24 5 0 9 -4 9 -8z m-4720
-62 c0 -4 -6 -7 -14 -7 -7 0 -13 7 -12 16 1 9 -5 15 -12 13 -8 -1 -11 2 -7 8
7 11 45 -15 45 -30z m20 30 c0 -5 -5 -10 -11 -10 -5 0 -7 5 -4 10 3 6 8 10 11
10 2 0 4 -4 4 -10z m4650 -4 c0 -2 -7 -9 -15 -16 -13 -11 -14 -10 -9 4 5 14
24 23 24 12z m804 -12 c3 -8 2 -12 -4 -9 -6 3 -10 10 -10 16 0 14 7 11 14 -7z
m-1349 -12 c-3 -3 -11 0 -18 7 -9 10 -8 11 6 5 10 -3 15 -9 12 -12z m786 1
c13 -16 12 -17 -3 -4 -10 7 -18 15 -18 17 0 8 8 3 21 -13z m539 4 c0 -2 -16
-18 -35 -37 -19 -19 -35 -31 -35 -27 0 3 15 20 33 36 31 30 37 34 37 28z
m-820 -11 c0 -2 -11 -11 -25 -20 -14 -9 -25 -13 -25 -8 0 5 10 14 23 20 27 13
27 13 27 8z m-1180 -16 c11 -8 7 -9 -15 -4 -37 8 -45 14 -19 14 10 0 26 -5 34
-10z m605 0 c-3 -5 -12 -10 -18 -10 -7 0 -6 4 3 10 19 12 23 12 15 0z m105 -5
c0 -7 -30 -13 -34 -7 -3 4 4 9 15 9 10 1 19 0 19 -2z m270 -5 c8 -5 11 -10 5
-10 -5 0 -17 5 -25 10 -8 5 -10 10 -5 10 6 0 17 -5 25 -10z m534 -11 c-3 -5
-10 -7 -15 -3 -5 3 -7 10 -3 15 3 5 10 7 15 3 5 -3 7 -10 3 -15z m489 8 c3 -7
-3 -13 -14 -13 -13 0 -15 3 -7 13 6 7 12 13 13 13 2 0 5 -6 8 -13z m-2056 -3
c-3 -3 -12 -4 -19 -1 -8 3 -5 6 6 6 11 1 17 -2 13 -5z m1159 -19 c-11 -8 -25
-15 -30 -15 -6 1 0 7 14 15 32 19 40 18 16 0z m-4531 -25 c10 -11 16 -20 13
-20 -3 0 -13 9 -23 20 -10 11 -16 20 -13 20 3 0 13 -9 23 -20z m3169 10 c-15
-15 -74 -24 -74 -12 0 9 21 15 70 21 9 0 11 -2 4 -9z m1797 -7 c13 -16 12 -17
-3 -4 -10 7 -18 15 -18 17 0 8 8 3 21 -13z m224 8 c3 -5 2 -12 -3 -15 -5 -3
-9 1 -9 9 0 17 3 19 12 6z m-1290 -11 c-27 -12 -43 -12 -25 0 8 5 22 9 30 9
10 0 8 -3 -5 -9z m-827 -9 c32 -20 -78 -28 -143 -10 -23 6 -17 7 23 4 29 -3
52 0 52 5 0 12 50 13 68 1z m922 -1 c-8 -5 -19 -10 -25 -10 -5 0 -3 5 5 10 8
5 20 10 25 10 6 0 3 -5 -5 -10z m490 6 c0 -2 -7 -7 -16 -10 -8 -3 -12 -2 -9 4
6 10 25 14 25 6z m-640 -16 c-8 -5 -22 -9 -30 -9 -10 0 -8 3 5 9 27 12 43 12
25 0z m597 -6 c-3 -3 -12 -4 -19 -1 -8 3 -5 6 6 6 11 1 17 -2 13 -5z m-653
-19 c-3 -8 -9 -14 -12 -13 -4 1 -20 -4 -36 -11 -47 -19 -43 -3 5 19 24 11 45
20 46 20 1 0 0 -7 -3 -15z m1246 -10 c-13 -14 -28 -25 -34 -25 -11 1 40 50 51
50 4 0 -4 -11 -17 -25z m-4965 -5 c10 -11 16 -20 13 -20 -3 0 -13 9 -23 20
-10 11 -16 20 -13 20 3 0 13 -9 23 -20z m2522 -7 c-20 -2 -52 -2 -70 0 -17 2
0 4 38 4 39 0 53 -2 32 -4z m1268 -3 c-27 -12 -43 -12 -25 0 8 5 22 9 30 9 10
0 8 -3 -5 -9z m1655 -10 c0 -5 -4 -10 -10 -10 -5 0 -10 5 -10 10 0 6 5 10 10
10 6 0 10 -4 10 -10z m-1870 -14 c0 -2 -7 -7 -16 -10 -8 -3 -12 -2 -9 4 6 10
25 14 25 6z m1333 -19 c-3 -5 -11 -6 -18 -3 -8 3 -19 -2 -25 -10 -7 -8 -17
-14 -22 -14 -6 0 0 8 12 18 22 18 63 25 53 9z m-1439 -17 c-6 -6 -28 -13 -50
-15 l-39 -5 40 14 c49 18 62 19 49 6z m-3330 -39 c-3 -3 -15 6 -27 18 l-22 24
27 -19 c14 -10 24 -21 22 -23z m4796 35 c0 -2 -8 -10 -17 -17 -16 -13 -17 -12
-4 4 13 16 21 21 21 13z m-4745 -15 c3 -5 2 -12 -3 -15 -5 -3 -9 1 -9 9 0 17
3 19 12 6z m3960 -1 c3 -6 -1 -7 -9 -4 -18 7 -21 14 -7 14 6 0 13 -4 16 -10z
m-785 -10 c-8 -5 -22 -9 -30 -9 -10 0 -8 3 5 9 27 12 43 12 25 0z m1513 -4 c9
0 17 -1 17 -2 0 -1 -17 -14 -37 -30 -21 -15 -32 -21 -26 -13 7 9 9 20 5 24 -4
5 -2 5 5 1 6 -3 14 -2 17 3 7 11 -22 23 -35 15 -5 -3 -6 -11 -2 -17 4 -7 0 -6
-10 2 -18 14 -23 26 -8 16 5 -3 13 0 16 6 4 5 14 7 24 3 9 -4 24 -7 34 -8z
m187 11 c0 -2 -10 -12 -22 -23 l-23 -19 19 23 c18 21 26 27 26 19z m-1775 -27
c-11 -5 -29 -8 -40 -8 -16 0 -15 2 5 8 34 11 60 11 35 0z m2084 -9 c-1 -11
-126 -111 -138 -111 -7 0 -9 -5 -5 -12 4 -7 4 -10 0 -7 -4 4 -18 -3 -31 -15
-13 -11 -31 -28 -41 -36 -16 -13 -17 -13 -10 5 5 11 9 25 9 31 0 7 12 11 26 9
22 -2 23 -1 8 10 -16 11 -16 13 -2 19 9 3 13 2 10 -4 -3 -6 -4 -10 0 -10 5 0
46 24 64 37 2 2 -4 12 -13 22 -10 11 -15 24 -12 30 8 12 46 11 64 -2 6 -5 12
-8 13 -6 0 2 2 12 4 22 2 11 7 22 11 25 4 4 4 -1 1 -11 -5 -13 -3 -17 5 -14 7
2 12 11 12 20 -1 9 4 13 12 10 8 -3 14 -8 13 -12z m-5179 -17 c0 -2 -9 0 -20
6 -11 6 -20 13 -20 16 0 2 9 0 20 -6 11 -6 20 -13 20 -16z m3260 16 c-8 -5
-22 -9 -30 -9 -10 0 -8 3 5 9 27 12 43 12 25 0z m627 -4 c-15 -12 -17 -18 -7
-38 10 -20 9 -21 -3 -6 -10 13 -16 15 -25 6 -9 -9 -12 -9 -12 0 0 16 37 52 53
52 7 -1 4 -6 -6 -14z m666 -15 c-12 -10 -19 -22 -15 -26 4 -5 1 -5 -7 0 -11 6
-9 12 10 26 31 24 41 24 12 0z m267 15 c0 -2 -8 -10 -17 -17 -16 -13 -17 -12
-4 4 13 16 21 21 21 13z m-1843 -13 c-9 -2 -15 -8 -12 -13 3 -4 -5 -7 -18 -7
-12 1 -47 -2 -77 -7 -70 -9 -59 2 17 19 54 12 131 19 90 8z m4032 -24 c-22
-13 -31 -11 -17 5 7 8 17 12 22 9 4 -3 2 -9 -5 -14z m-3194 1 c-27 -12 -43
-12 -25 0 8 5 22 9 30 9 10 0 8 -3 -5 -9z m800 0 c-3 -5 -12 -10 -18 -10 -7 0
-6 4 3 10 19 12 23 12 15 0z m-890 -46 c2 -10 5 -26 9 -35 4 -10 2 -16 -8 -16
-8 0 -12 6 -8 15 3 9 1 13 -4 10 -5 -3 -15 0 -21 7 -10 11 -9 15 9 20 16 6 18
9 7 17 -12 8 -12 9 0 6 8 -2 15 -13 16 -24z m745 6 c-24 -15 -36 -11 -14 4 10
8 21 12 24 10 2 -3 -2 -9 -10 -14z m264 2 c3 -5 -1 -9 -9 -9 -8 0 -12 4 -9 9
3 4 7 8 9 8 2 0 6 -4 9 -8z m-1857 -8 c-3 -3 -12 -4 -19 -1 -8 3 -5 6 6 6 11
1 17 -2 13 -5z m4033 2 c0 -2 -7 -7 -16 -10 -8 -3 -12 -2 -9 4 6 10 25 14 25
6z m-3011 -51 c0 -5 -6 -1 -14 9 -8 11 -15 24 -15 30 0 5 7 1 15 -10 8 -10 14
-23 14 -29z m2931 10 c0 -2 -9 -3 -19 -2 -11 0 -18 5 -15 9 4 6 34 0 34 -7z
m-3092 -50 c-3 -3 -9 2 -12 12 -6 14 -5 15 5 6 7 -7 10 -15 7 -18z m-3497 -2
c13 -16 12 -17 -3 -4 -17 13 -22 21 -14 21 2 0 10 -8 17 -17z m5905 -30 c17
-13 38 -23 47 -23 21 0 31 -17 16 -26 -8 -4 -9 -3 -5 5 6 9 0 10 -20 5 -17 -4
-25 -3 -21 3 4 6 -11 23 -33 38 -22 15 -40 30 -40 32 0 6 18 -5 56 -34z
m-1596 11 c-8 -8 -23 -20 -34 -25 -13 -6 -10 0 9 15 34 29 43 33 25 10z m280
6 c8 -5 11 -10 5 -10 -5 0 -17 5 -25 10 -8 5 -10 10 -5 10 6 0 17 -5 25 -10z
m55 1 c3 -5 0 -13 -6 -17 -7 -4 -9 -3 -5 4 3 6 -2 13 -11 15 -16 4 -16 5 -1 6
9 0 19 -3 23 -8z m55 0 c0 -5 -16 -19 -36 -32 -20 -12 -48 -33 -62 -46 -25
-23 -43 -26 -49 -7 -4 13 45 64 61 64 6 0 -4 -13 -22 -29 -18 -16 -28 -32 -23
-35 5 -4 13 -1 16 4 4 6 25 25 47 41 23 16 37 29 32 29 -11 0 17 20 29 20 4 0
7 -4 7 -9z m1164 -20 c-2 -3 -9 0 -16 7 -8 8 -23 5 -59 -14 -27 -13 -52 -24
-56 -24 -4 1 17 14 47 29 42 22 58 26 72 18 9 -6 15 -13 12 -16z m-2346 -6
c-3 -3 -9 2 -12 12 -6 14 -5 15 5 6 7 -7 10 -15 7 -18z m-348 -6 c0 -6 -4 -7
-10 -4 -5 3 -10 11 -10 16 0 6 5 7 10 4 6 -3 10 -11 10 -16z m-157 -45 c-6
-17 -23 -9 -23 11 0 8 6 12 14 9 8 -3 12 -12 9 -20z m713 6 c0 -12 -4 -16 -9
-11 -5 5 -6 14 -3 20 10 15 12 14 12 -9z m-1569 -222 c-1 -46 -3 -11 -3 77 0
88 2 125 3 83 2 -42 2 -114 0 -160z m3897 193 c4 -5 -3 -7 -14 -4 -23 6 -26
13 -6 13 8 0 17 -4 20 -9z m-2244 -21 c-8 -5 -19 -10 -25 -10 -5 0 -3 5 5 10
8 5 20 10 25 10 6 0 3 -5 -5 -10z m718 -8 c-9 -10 -13 -10 -18 -1 -5 6 -13 8
-20 4 -8 -5 -11 -4 -7 2 4 6 18 10 31 9 19 -1 22 -4 14 -14z m1572 8 c8 -5 11
-10 5 -10 -5 0 -17 5 -25 10 -8 5 -10 10 -5 10 6 0 17 -5 25 -10z m-3455 -20
c3 -6 -1 -7 -9 -4 -18 7 -21 14 -7 14 6 0 13 -4 16 -10z m384 -23 c0 -21 -1
-21 -9 -2 -12 28 -12 37 0 30 6 -3 10 -16 9 -28z m3046 23 c3 -6 -1 -7 -9 -4
-18 7 -21 14 -7 14 6 0 13 -4 16 -10z m-1645 -20 c-8 -5 -19 -10 -25 -10 -5 0
-3 5 5 10 8 5 20 10 25 10 6 0 3 -5 -5 -10z m1748 -8 c2 -7 -1 -12 -8 -12 -6
0 -9 4 -6 9 4 5 1 12 -4 14 -6 3 -5 4 2 3 6 -1 14 -8 16 -14z m-4431 2 c-3 -3
-12 -4 -19 -1 -8 3 -5 6 6 6 11 1 17 -2 13 -5z m2713 -9 c0 -2 -10 -9 -22 -15
-22 -11 -22 -10 -4 4 21 17 26 19 26 11z m1760 -20 c0 -8 -5 -15 -11 -15 -5 0
-7 5 -4 10 3 6 2 10 -4 10 -5 0 -13 -4 -16 -10 -3 -5 -12 -10 -18 -10 -16 1
23 30 40 30 7 0 13 -7 13 -15z m-1810 0 c0 -2 -9 -9 -20 -15 -12 -6 -20 -7
-20 -1 0 5 8 12 18 14 9 3 18 5 20 6 1 0 2 -1 2 -4z m1808 -56 c-3 -8 -7 -3
-11 10 -4 17 -3 21 5 13 5 -5 8 -16 6 -23z m-1858 16 c0 -2 -9 -9 -20 -15 -12
-6 -20 -7 -20 -1 0 5 8 12 18 14 9 3 18 5 20 6 1 0 2 -1 2 -4z m1459 -5 c-6
-5 -18 -6 -26 -3 -19 8 -16 11 13 11 17 0 22 -3 13 -8z m56 0 c3 -6 -1 -7 -9
-4 -18 7 -21 14 -7 14 6 0 13 -4 16 -10z m-1584 -27 c13 -16 12 -17 -3 -4 -10
7 -18 15 -18 17 0 8 8 3 21 -13z m-1934 -60 c-3 -10 -5 -4 -5 12 0 17 2 24 5
18 2 -7 2 -21 0 -30z m977 12 c-17 -8 -44 -16 -60 -20 -16 -3 -6 4 21 14 57
22 86 26 39 6z m886 0 c0 -6 -56 -35 -67 -35 -4 1 8 9 27 20 39 22 40 22 40
15z m1516 -15 c0 -12 -4 -16 -9 -11 -5 5 -6 14 -3 20 10 15 12 14 12 -9z
m-2492 -18 c3 -4 -8 -13 -25 -19 -20 -8 -27 -8 -23 -1 5 8 -1 9 -17 4 -59 -16
-70 -15 -24 3 55 21 81 25 89 13z m826 -46 c0 -3 -4 -8 -10 -11 -5 -3 -10 -1
-10 4 0 6 5 11 10 11 6 0 10 -2 10 -4z m-75 -16 c-3 -5 -1 -10 6 -10 7 0 4 -7
-7 -15 -10 -8 -23 -14 -29 -14 -5 0 -1 6 9 14 14 11 16 15 5 15 -12 0 -12 2 1
10 19 12 23 12 15 0z m-1838 -72 c-2 -13 -4 -3 -4 22 0 25 2 35 4 23 2 -13 2
-33 0 -45z m3503 -8 c-6 -11 -13 -20 -16 -20 -2 0 0 9 6 20 6 11 13 20 16 20
2 0 0 -9 -6 -20z m-1795 -8 c-3 -3 -11 0 -18 7 -9 10 -8 11 6 5 10 -3 15 -9
12 -12z m-2232 1 c-7 -2 -19 -2 -25 0 -7 3 -2 5 12 5 14 0 19 -2 13 -5z m110
-10 c-13 -2 -33 -2 -45 0 -13 2 -3 4 22 4 25 0 35 -2 23 -4z m3297 4 c0 -2
-10 -12 -22 -23 l-23 -19 19 23 c18 21 26 27 26 19z m868 -32 c-3 -3 -9 2 -12
12 -6 14 -5 15 5 6 7 -7 10 -15 7 -18z m-3293 5 c-3 -5 -18 -10 -33 -9 l-27 1
25 8 c35 11 42 11 35 0z m1192 4 c-3 -3 -12 -4 -19 -1 -8 3 -5 6 6 6 11 1 17
-2 13 -5z m-1477 -37 c11 -5 9 -6 -4 -4 -11 1 -21 9 -23 17 -3 10 -2 11 4 4 4
-6 15 -14 23 -17z m203 16 c-7 -2 -21 -2 -30 0 -10 3 -4 5 12 5 17 0 24 -2 18
-5z m-693 -13 c0 -5 -5 -10 -11 -10 -5 0 -7 5 -4 10 3 6 8 10 11 10 2 0 4 -4
4 -10z m154 -16 c3 -8 2 -12 -4 -9 -6 3 -10 10 -10 16 0 14 7 11 14 -7z m1716
12 c0 -2 -7 -7 -16 -10 -8 -3 -12 -2 -9 4 6 10 25 14 25 6z m2507 -92 c-3 -3
-12 -4 -19 -1 -8 3 -5 6 6 6 11 1 17 -2 13 -5z m-77 -58 c0 -3 -4 -8 -10 -11
-5 -3 -10 -1 -10 4 0 6 5 11 10 11 6 0 10 -2 10 -4z m-30 -20 c0 -2 -7 -7 -16
-10 -8 -3 -12 -2 -9 4 6 10 25 14 25 6z m-80 -41 c0 -2 -6 -5 -13 -8 -8 -3
-14 1 -14 8 0 7 6 11 14 8 7 -3 13 -6 13 -8z m-60 -35 c-8 -5 -19 -10 -25 -10
-5 0 -3 5 5 10 8 5 20 10 25 10 6 0 3 -5 -5 -10z m-3977 -77 c-7 -2 -21 -2
-30 0 -10 3 -4 5 12 5 17 0 24 -2 18 -5z m230 0 c-13 -2 -35 -2 -50 0 -16 2
-5 4 22 4 28 0 40 -2 28 -4z m-1033 -197 c0 -3 -4 -8 -10 -11 -5 -3 -10 -1
-10 4 0 6 5 11 10 11 6 0 10 -2 10 -4z"/>
<path d="M1290 9429 c-198 -104 -271 -150 -281 -176 -5 -13 -9 -129 -9 -257 0
-200 2 -235 16 -247 8 -7 88 -52 177 -99 89 -48 177 -95 195 -106 l32 -19 68
36 c37 20 136 73 220 119 l152 82 0 257 0 257 -182 94 c-101 51 -192 99 -203
107 -34 23 -67 14 -185 -48z m230 -144 c36 -18 77 -46 91 -62 59 -64 77 -188
39 -271 -23 -51 -96 -160 -172 -259 l-55 -71 -44 56 c-185 237 -224 324 -199
447 15 73 64 124 164 171 79 37 81 37 176 -11z"/>
<path d="M1340 9228 c-119 -61 -148 -211 -59 -306 37 -39 83 -64 112 -60 24 3
26 19 10 98 -8 43 -10 45 -45 45 -31 0 -35 2 -27 18 5 9 21 24 34 33 19 13 25
24 24 53 -1 20 4 49 10 64 15 38 14 77 -2 77 -7 0 -33 -10 -57 -22z m9 -153
c-3 -3 -15 3 -27 13 -12 11 -19 22 -15 26 4 4 16 -2 27 -13 11 -11 17 -23 15
-26z"/>
<path d="M1426 9242 c-9 -14 6 -91 18 -89 6 1 11 -11 12 -28 1 -50 3 -55 25
-55 16 0 19 4 14 20 -4 13 -1 22 9 26 31 12 38 -1 15 -29 -18 -24 -20 -32 -10
-53 16 -36 15 -36 -29 -29 -37 6 -40 5 -40 -17 0 -12 -3 -47 -6 -75 -7 -52 -6
-53 19 -53 28 0 99 50 131 93 14 20 21 47 24 95 3 57 0 72 -20 102 -38 56
-146 118 -162 92z"/>
<path d="M1160 8626 c0 -3 9 -10 20 -16 11 -6 20 -8 20 -6 0 3 -9 10 -20 16
-11 6 -20 8 -20 6z"/>
<path d="M1211 8606 c2 -2 15 -9 29 -15 24 -11 24 -11 6 3 -16 13 -49 24 -35
12z"/>
<path d="M8730 9439 c-52 -28 -139 -76 -192 -106 l-98 -54 0 -259 0 -259 58
-34 c31 -19 111 -64 177 -99 66 -36 130 -71 142 -79 20 -12 29 -10 95 25 40
21 105 58 143 81 39 23 94 55 123 70 l52 27 -2 266 -3 265 -175 98 c-96 53
-186 100 -200 103 -18 4 -51 -8 -120 -45z m208 -178 c120 -61 163 -199 96
-307 -29 -48 -91 -94 -126 -94 -32 0 -19 29 21 49 54 28 89 73 96 125 17 114
-67 206 -187 206 -62 0 -103 -21 -144 -76 -25 -33 -29 -46 -29 -105 0 -81 18
-112 88 -149 26 -14 47 -31 47 -37 0 -34 -95 10 -131 60 -86 119 -43 267 96
334 58 28 111 26 173 -6z m-52 -156 c15 -23 15 -27 0 -50 -22 -33 -60 -33 -82
0 -14 21 -15 31 -6 50 16 35 65 35 88 0z m-270 -165 c35 -68 40 -72 110 -106
41 -19 76 -39 79 -45 18 -28 -108 15 -161 56 -36 28 -84 110 -84 145 0 37 19
21 56 -50z m514 44 c0 -8 -11 -37 -25 -64 -34 -68 -107 -120 -189 -135 -35 -7
-38 -6 -29 10 5 9 36 27 67 40 73 30 91 47 127 118 27 53 49 67 49 31z m-275
-26 c10 -40 1 -211 -11 -215 -15 -5 -28 129 -19 191 8 49 21 60 30 24z"/>
<path d="M2275 9040 c-3 -6 1 -7 9 -4 18 7 21 14 7 14 -6 0 -13 -4 -16 -10z"/>
<path d="M2175 8930 c-10 -11 -13 -20 -8 -20 13 0 38 29 31 35 -3 3 -13 -4
-23 -15z"/>
<path d="M2138 8883 c-8 -10 -19 -25 -23 -33 -8 -13 -7 -13 9 -1 16 14 41 51
33 51 -2 0 -11 -8 -19 -17z"/>
<path d="M3303 8435 c-539 -269 -1006 -668 -1398 -1195 -43 -58 -82 -104 -87
-102 -5 1 -7 -2 -4 -7 4 -5 -29 -63 -73 -128 -96 -145 -173 -286 -173 -318 -1
-14 -4 -22 -9 -20 -4 3 -18 -13 -30 -35 -16 -29 -25 -37 -32 -28 -5 8 -6 5 -2
-9 4 -13 -2 -38 -14 -62 -11 -21 -34 -75 -51 -118 -17 -43 -38 -93 -46 -111
-23 -50 -46 -133 -39 -140 4 -4 14 -7 23 -8 56 -3 58 -4 42 -15 -12 -8 -9 -9
12 -5 28 6 174 -27 221 -51 20 -10 27 -11 27 -1 0 12 113 292 135 335 7 12 15
20 19 16 4 -4 4 0 1 9 -3 8 0 22 7 29 20 21 22 59 4 59 -9 0 -16 5 -16 11 0 5
-5 7 -10 4 -5 -3 -10 -1 -10 4 0 6 -4 10 -9 9 -18 -6 -211 97 -207 109 3 7 0
13 -6 13 -6 0 -9 3 -5 6 3 3 34 -10 69 -29 106 -59 202 -107 216 -107 7 0 17
11 24 25 6 13 14 22 19 19 4 -2 7 4 7 13 -3 32 161 299 176 288 3 -3 4 -2 1 2
-7 9 11 36 113 171 46 61 88 112 93 112 5 0 8 4 7 8 -4 10 62 90 157 192 38
41 85 92 104 113 l35 37 -108 109 c-64 64 -104 111 -97 115 18 11 41 -7 139
-109 l93 -98 27 24 c14 13 31 29 38 34 6 6 46 41 88 79 l77 69 -23 26 -23 26
28 -25 c20 -17 32 -21 41 -15 7 6 48 36 90 69 l76 59 -26 36 -26 36 31 -32
c17 -18 33 -33 37 -33 3 0 21 12 39 26 69 52 241 152 418 242 98 49 108 57
103 77 -12 49 -121 275 -132 275 -6 0 -88 -38 -181 -85z m-373 -385 c12 -16
19 -30 16 -30 -2 0 -14 14 -26 30 -12 17 -19 30 -16 30 2 0 14 -13 26 -30z
m45 -60 c10 -11 16 -20 13 -20 -3 0 -13 9 -23 20 -10 11 -16 20 -13 20 3 0 13
-9 23 -20z m-249 -82 l29 -33 -32 29 c-31 28 -38 36 -30 36 2 0 16 -15 33 -32z"/>
<path d="M1339 7043 c-1 -5 -1 -12 0 -16 2 -10 -25 -38 -31 -32 -2 2 -4 -5 -4
-16 0 -19 1 -19 14 -2 11 15 14 16 22 3 6 -9 8 -2 6 23 -2 20 2 38 8 41 7 3 7
5 -1 5 -7 1 -14 -2 -14 -6z"/>
<path d="M1267 6913 c-4 -3 -7 -18 -6 -32 1 -26 1 -25 10 3 9 31 7 41 -4 29z"/>
<path d="M1206 6814 c-5 -14 -4 -15 9 -4 17 14 19 20 6 20 -5 0 -12 -7 -15
-16z"/>
<path d="M1180 6738 c15 -18 12 -32 -4 -19 -12 10 -14 7 -10 -16 3 -15 6 -35
7 -44 1 -9 6 -16 12 -16 15 0 13 84 -2 97 -10 7 -10 7 -3 -2z m10 -63 c0 -5
-5 -3 -10 5 -5 8 -10 20 -10 25 0 6 5 3 10 -5 5 -8 10 -19 10 -25z"/>
<path d="M1145 6676 c3 -11 0 -23 -7 -28 -9 -5 -10 -8 -1 -8 19 0 25 18 13 37
-11 17 -11 16 -5 -1z"/>
<path d="M1600 6660 c8 -6 24 -15 35 -21 16 -8 15 -6 -4 10 -13 12 -28 21 -35
21 -6 0 -4 -5 4 -10z"/>
<path d="M8645 6648 c-16 -10 -83 -46 -148 -79 -65 -34 -117 -64 -115 -68 88
-209 122 -288 128 -294 6 -7 300 104 319 119 6 5 -96 243 -127 295 l-27 46
-30 -19z"/>
<path d="M1110 6553 c0 -15 -2 -16 -10 -3 -7 11 -9 3 -7 -27 1 -24 6 -42 11
-40 8 3 18 87 10 87 -2 0 -4 -8 -4 -17z"/>
<path d="M1040 6420 c0 -5 5 -10 10 -10 6 0 10 5 10 10 0 6 -4 10 -10 10 -5 0
-10 -4 -10 -10z"/>
<path d="M1331 6234 c0 -11 3 -14 6 -6 3 7 2 16 -1 19 -3 4 -6 -2 -5 -13z"/>
<path d="M1732 6175 c1 -11 -2 -32 -5 -47 -4 -16 -3 -28 2 -28 11 0 19 67 9
83 -4 7 -7 5 -6 -8z"/>
<path d="M1702 6131 c-7 -19 -10 -36 -7 -39 6 -7 26 49 22 62 -2 6 -9 -5 -15
-23z"/>
<path d="M1751 6124 c0 -11 3 -14 6 -6 3 7 2 16 -1 19 -3 4 -6 -2 -5 -13z"/>
<path d="M1251 6044 c0 -11 3 -14 6 -6 3 7 2 16 -1 19 -3 4 -6 -2 -5 -13z"/>
<path d="M1057 6007 c-3 -9 -2 -19 3 -22 7 -4 6 -13 0 -25 -5 -10 -9 -29 -9
-42 1 -20 2 -20 6 -3 2 11 9 29 14 40 6 13 7 30 1 44 -7 20 -10 21 -15 8z"/>
<path d="M1261 6004 c0 -11 3 -14 6 -6 3 7 2 16 -1 19 -3 4 -6 -2 -5 -13z"/>
<path d="M1691 5990 c-9 -5 -3 -11 20 -19 40 -14 44 -11 15 11 -13 9 -28 13
-35 8z"/>
<path d="M1247 5973 c-4 -3 -7 -13 -7 -22 1 -13 3 -13 11 2 11 19 8 33 -4 20z"/>
<path d="M1095 5960 c-3 -5 -1 -10 4 -10 6 0 11 5 11 10 0 6 -2 10 -4 10 -3 0
-8 -4 -11 -10z"/>
<path d="M1083 5930 c2 -8 0 -23 -5 -33 -5 -10 -7 -21 -5 -24 3 -2 10 5 17 16
8 16 8 26 0 39 -8 11 -10 12 -7 2z"/>
<path d="M1197 5886 c-4 -27 -2 -43 8 -53 13 -13 15 -11 14 14 -1 15 -4 39 -8
53 -7 23 -8 22 -14 -14z"/>
<path d="M1048 5857 c-3 -19 -2 -25 4 -19 6 6 8 18 6 28 -3 14 -5 12 -10 -9z"/>
<path d="M1022 5630 c0 -14 2 -19 5 -12 2 6 2 18 0 25 -3 6 -5 1 -5 -13z"/>
<path d="M1173 5585 c0 -22 2 -30 4 -17 2 12 2 30 0 40 -3 9 -5 -1 -4 -23z"/>
<path d="M1010 5576 c-5 -15 -12 -39 -15 -54 l-5 -27 11 25 c6 14 16 35 22 47
6 13 7 26 4 29 -4 4 -11 -5 -17 -20z"/>
<path d="M1131 5584 c0 -11 3 -14 6 -6 3 7 2 16 -1 19 -3 4 -6 -2 -5 -13z"/>
<path d="M1007 5497 c-11 -29 -9 -43 4 -30 6 6 9 19 7 29 -3 18 -4 18 -11 1z"/>
<path d="M8856 3415 c-9 -26 -7 -32 5 -12 6 10 9 21 6 23 -2 3 -7 -2 -11 -11z"/>
<path d="M8772 3268 c-7 -7 -12 -16 -12 -22 0 -5 7 -1 15 10 14 18 14 17 10
-16 -5 -35 -5 -35 5 -5 11 33 1 52 -18 33z"/>
<path d="M8746 3208 c3 -5 10 -6 15 -3 13 9 11 12 -6 12 -8 0 -12 -4 -9 -9z"/>
<path d="M8520 2865 c5 -22 -1 -36 -11 -29 -7 4 -6 -2 2 -17 11 -22 11 -23 -4
-10 -10 7 -17 12 -18 10 0 -2 -2 -12 -4 -23 -2 -10 -9 -24 -16 -30 -9 -8 -10
-7 -4 4 8 13 6 13 -8 1 -9 -7 -14 -18 -10 -24 3 -5 -1 -15 -9 -21 -8 -6 -17
-19 -21 -29 -4 -10 -11 -16 -16 -12 -11 6 -44 -37 -33 -45 4 -3 9 -14 10 -25
5 -28 12 -32 12 -7 0 12 5 22 10 22 6 0 15 12 20 26 6 14 13 24 17 21 12 -5
48 36 51 59 2 10 18 33 37 49 41 35 43 45 14 71 -11 10 -20 14 -19 9z m30 -41
c0 -8 -19 -13 -24 -6 -3 5 1 9 9 9 8 0 15 -2 15 -3z m-79 -97 c-10 -9 -11 -8
-5 6 3 10 9 15 12 12 3 -3 0 -11 -7 -18z m-80 -70 c-10 -9 -11 -8 -5 6 3 10 9
15 12 12 3 -3 0 -11 -7 -18z"/>
<path d="M8465 2650 c-3 -5 -1 -10 4 -10 6 0 11 5 11 10 0 6 -2 10 -4 10 -3 0
-8 -4 -11 -10z"/>
<path d="M8576 2632 c-3 -5 1 -9 9 -9 8 0 12 4 9 9 -3 4 -7 8 -9 8 -2 0 -6 -4
-9 -8z"/>
<path d="M8351 2618 c0 -10 -9 -18 -18 -18 -13 0 -14 -3 -5 -12 16 -16 36 3
29 28 -4 17 -5 17 -6 2z"/>
<path d="M8420 2609 c0 -5 5 -7 10 -4 6 3 10 8 10 11 0 2 -4 4 -10 4 -5 0 -10
-5 -10 -11z"/>
<path d="M8286 2552 c-3 -5 1 -9 9 -9 8 0 12 4 9 9 -3 4 -7 8 -9 8 -2 0 -6 -4
-9 -8z"/>
<path d="M8485 2549 c-3 -4 2 -6 10 -5 21 3 28 13 10 13 -9 0 -18 -4 -20 -8z"/>
<path d="M8370 2386 c0 -2 7 -7 16 -10 8 -3 12 -2 9 4 -6 10 -25 14 -25 6z"/>
<path d="M8337 2362 c-10 -10 -17 -23 -17 -28 0 -5 5 -2 10 6 8 12 11 13 19 1
6 -9 9 -6 9 13 0 31 0 31 -21 8z"/>
<path d="M8287 2313 c-4 -3 -7 -11 -7 -17 0 -6 5 -5 12 2 6 6 9 14 7 17 -3 3
-9 2 -12 -2z"/>
<path d="M8314 2308 c-11 -17 6 -22 22 -7 13 14 13 16 -1 16 -9 0 -18 -4 -21
-9z"/>
<path d="M8208 2193 c7 -3 16 -2 19 1 4 3 -2 6 -13 5 -11 0 -14 -3 -6 -6z"/>
<path d="M8115 2100 c-27 -30 -11 -35 18 -6 15 15 20 26 13 26 -7 0 -21 -9
-31 -20z"/>
<path d="M2486 7038 c3 -5 0 -16 -8 -25 -9 -12 -9 -15 -1 -9 22 12 34 43 18
43 -8 0 -12 -4 -9 -9z"/>
<path d="M2447 7004 c-3 -3 -3 -13 0 -22 4 -10 2 -13 -5 -8 -6 3 -14 1 -19 -7
-4 -7 -17 -13 -28 -13 -12 0 -19 -5 -17 -14 7 -31 7 -35 -6 -32 -8 1 -11 -2
-7 -8 5 -8 13 -6 24 4 10 9 21 13 25 9 4 -4 4 1 0 10 -4 12 -2 17 7 15 9 -2
13 4 11 15 -2 10 2 16 10 15 7 -2 13 7 14 20 1 24 1 25 -9 16z m-37 -60 c0 -8
-19 -13 -24 -6 -3 5 1 9 9 9 8 0 15 -2 15 -3z"/>
<path d="M2336 6843 c-6 -14 -5 -15 5 -6 7 7 10 15 7 18 -3 3 -9 -2 -12 -12z"/>
<path d="M2054 6403 c2 -9 8 -18 15 -19 6 -1 7 0 1 3 -5 2 -8 9 -5 13 3 5 1
11 -4 14 -5 4 -8 -2 -7 -11z"/>
<path d="M2026 6348 c3 -10 2 -18 -4 -18 -5 0 -12 -10 -15 -22 -6 -23 -6 -23
12 1 18 23 19 23 24 5 3 -13 5 -14 6 -3 0 8 -6 24 -14 35 -13 16 -14 16 -9 2z"/>
<path d="M1960 6173 c0 -5 5 -15 10 -23 8 -12 10 -11 10 8 0 12 -4 22 -10 22
-5 0 -10 -3 -10 -7z"/>
<path d="M1865 5879 c-4 -6 -5 -12 -2 -15 2 -3 7 2 10 11 7 17 1 20 -8 4z"/>
<path d="M1891 5864 c0 -11 3 -14 6 -6 3 7 2 16 -1 19 -3 4 -6 -2 -5 -13z"/>
<path d="M1850 5836 c0 -9 5 -16 10 -16 6 0 10 4 10 9 0 6 -4 13 -10 16 -5 3
-10 -1 -10 -9z"/>
<path d="M1881 5814 c0 -11 3 -14 6 -6 3 7 2 16 -1 19 -3 4 -6 -2 -5 -13z"/>
<path d="M1861 5794 c0 -11 3 -14 6 -6 3 7 2 16 -1 19 -3 4 -6 -2 -5 -13z"/>
<path d="M1785 5470 c-4 -12 -5 -24 -2 -27 3 -2 8 5 12 17 4 12 5 24 2 27 -3
2 -8 -5 -12 -17z"/>
<path d="M1783 5375 c0 -22 2 -30 4 -17 2 12 2 30 0 40 -3 9 -5 -1 -4 -23z"/>
<path d="M1801 5344 c0 -11 3 -14 6 -6 3 7 2 16 -1 19 -3 4 -6 -2 -5 -13z"/>
<path d="M1792 5300 c0 -14 2 -19 5 -12 2 6 2 18 0 25 -3 6 -5 1 -5 -13z"/>
<path d="M1772 5250 c-15 -227 -12 -370 7 -370 10 0 22 124 24 252 2 100 -10
106 -14 8 -2 -41 -4 -29 -9 45 -3 55 -7 84 -8 65z m15 -247 c-3 -10 -5 -4 -5
12 0 17 2 24 5 18 2 -7 2 -21 0 -30z"/>
<path d="M1787 4873 c-11 -10 -8 -53 3 -53 6 0 10 6 10 14 0 8 3 21 6 30 6 16
-7 22 -19 9z"/>
<path d="M1811 4814 c0 -11 3 -14 6 -6 3 7 2 16 -1 19 -3 4 -6 -2 -5 -13z"/>
<path d="M1786 4797 c3 -10 9 -15 12 -12 3 3 0 11 -7 18 -10 9 -11 8 -5 -6z"/>
<path d="M1800 4744 c0 -22 -3 -26 -10 -14 -5 8 -10 11 -10 5 0 -5 5 -17 10
-25 9 -13 10 -13 11 0 0 10 3 9 9 -5 7 -15 8 -10 5 19 -5 46 -15 60 -15 20z"/>
<path d="M1796 4645 c4 -11 10 -36 14 -55 8 -34 8 -34 8 -5 1 17 -6 41 -14 55
-10 16 -13 18 -8 5z"/>
<path d="M7959 3433 c-8 -9 -9 -14 -2 -10 6 4 13 2 15 -5 3 -8 7 -6 11 5 9 23
-8 30 -24 10z"/>
<path d="M7860 3315 c-7 -9 -10 -18 -6 -22 3 -3 6 -1 6 6 0 7 7 11 14 8 10 -4
13 -1 9 9 -6 18 -8 18 -23 -1z"/>
<path d="M7853 3259 c-2 -23 3 -25 10 -4 4 8 3 16 -1 19 -4 3 -9 -4 -9 -15z"/>
<path d="M7797 3199 c7 -7 15 -10 18 -7 3 3 -2 9 -12 12 -14 6 -15 5 -6 -5z"/>
<path d="M8740 8176 c0 -2 8 -10 18 -17 15 -13 16 -12 3 4 -13 16 -21 21 -21
13z"/>
<path d="M9385 7210 c3 -5 11 -10 16 -10 6 0 7 5 4 10 -3 6 -11 10 -16 10 -6
0 -7 -4 -4 -10z"/>
<path d="M9471 7166 c2 -2 15 -9 29 -15 24 -11 24 -11 6 3 -16 13 -49 24 -35
12z"/>
<path d="M9465 7139 c6 -9 3 -11 -8 -6 -11 4 -14 2 -10 -9 7 -18 -2 -18 -21 2
-9 8 -16 11 -16 5 0 -13 17 -23 44 -26 35 -4 37 -5 32 -13 -2 -4 4 -8 15 -8
19 0 19 1 3 13 -10 7 -21 13 -26 13 -4 0 -8 5 -8 11 0 6 9 8 23 3 26 -8 22 -2
-12 16 -19 10 -22 10 -16 -1z"/>
<path d="M9638 7133 c7 -3 16 -2 19 1 4 3 -2 6 -13 5 -11 0 -14 -3 -6 -6z"/>
<path d="M9596 7111 c-4 -5 -2 -12 3 -15 5 -4 12 -2 15 3 4 5 2 12 -3 15 -5 4
-12 2 -15 -3z"/>
<path d="M9630 7116 c0 -2 7 -7 16 -10 8 -3 12 -2 9 4 -6 10 -25 14 -25 6z"/>
<path d="M9538 7103 c7 -3 16 -2 19 1 4 3 -2 6 -13 5 -11 0 -14 -3 -6 -6z"/>
<path d="M9540 7080 c0 -5 7 -10 16 -10 8 0 12 5 9 10 -3 6 -10 10 -16 10 -5
0 -9 -4 -9 -10z"/>
<path d="M9510 7621 c-5 -11 -10 -29 -10 -40 0 -18 6 -21 45 -21 41 0 45 2 45
24 0 49 -59 76 -80 37z"/>
<path d="M9516 7443 c-11 -67 -9 -73 23 -73 35 0 43 17 35 71 -5 32 -11 39
-29 39 -18 0 -24 -7 -29 -37z"/>
<path d="M3603 7215 c0 -8 4 -12 9 -9 5 3 6 10 3 15 -9 13 -12 11 -12 -6z"/>
<path d="M5059 6817 c-351 -266 -796 -475 -1199 -564 -178 -39 -318 -67 -444
-88 -76 -13 -140 -26 -142 -27 -10 -10 -41 -393 -54 -668 -27 -554 60 -882
354 -1334 39 -60 70 -113 68 -118 -1 -5 2 -7 7 -4 5 3 17 -7 27 -22 84 -129
356 -419 509 -541 44 -35 79 -68 78 -73 -2 -4 1 -7 6 -5 5 1 23 -10 40 -26 17
-15 31 -25 31 -22 0 3 28 -16 63 -43 62 -48 192 -138 226 -157 10 -6 27 -17
36 -25 9 -8 65 -42 123 -76 59 -35 112 -67 117 -71 6 -5 40 -24 77 -43 37 -19
64 -38 61 -43 -3 -6 -2 -7 4 -4 6 4 24 1 40 -5 27 -10 37 -7 99 27 38 21 85
47 104 58 19 10 50 28 67 39 18 11 38 16 44 12 7 -4 9 -3 5 4 -3 6 20 26 56
48 35 21 95 59 135 86 40 26 74 48 77 48 7 0 245 182 368 282 123 100 363 336
407 401 17 26 36 47 41 47 6 0 10 4 10 10 0 13 111 155 120 153 4 -1 7 3 7 10
0 7 27 55 60 107 184 291 271 516 309 800 26 196 13 599 -32 997 l-17 152 -96
16 c-560 98 -863 186 -1176 339 -148 73 -371 212 -492 307 -35 27 -67 49 -71
49 -5 0 -29 -15 -53 -33z m104 -184 c75 -48 227 -162 227 -170 0 -5 4 -8 -173
104 -85 53 -153 90 -160 86 -7 -4 -6 0 2 10 7 9 18 17 23 17 5 0 41 -21 81
-47z m-1178 -687 c51 -50 55 -58 55 -100 l0 -46 -61 0 c-55 0 -64 3 -90 31
l-29 31 -111 -4 c-107 -3 -112 -4 -135 -31 -23 -27 -24 -33 -24 -208 0 -178 0
-180 25 -204 23 -24 31 -25 134 -25 102 0 111 2 139 25 47 39 162 30 162 -12
0 -26 -40 -87 -79 -119 -42 -35 -80 -40 -261 -36 l-135 3 -65 58 -65 59 -3
237 c-2 131 -1 248 2 260 3 12 35 48 72 79 l66 56 173 0 174 0 56 -54z m339
-106 c43 -88 82 -160 86 -160 4 0 41 72 84 160 l77 160 79 0 c44 0 80 -2 80
-5 0 -8 -209 -403 -229 -435 -12 -19 -17 -56 -18 -164 -2 -76 -4 -141 -6 -143
-2 -2 -32 -4 -67 -4 -43 -1 -65 3 -71 12 -5 8 -9 73 -9 144 0 95 -4 136 -14
150 -17 25 -226 430 -226 438 0 4 35 7 78 7 l77 0 79 -160z m966 98 l71 -63
-3 -92 c-3 -91 -3 -92 -40 -130 l-38 -38 45 -41 45 -40 0 -80 c0 -95 -15 -126
-86 -172 l-47 -32 -224 0 -223 0 0 375 0 375 215 0 214 0 71 -62z m748 -10
l-3 -73 -198 -3 -198 -2 3 -78 3 -77 168 -3 168 -2 -3 -68 -3 -67 -167 -3
-168 -2 0 -80 0 -80 205 0 205 0 0 -70 0 -70 -274 0 -274 0 -4 298 c-2 163 -2
332 0 375 l4 77 270 0 269 0 -3 -72z m659 30 c28 -24 57 -53 63 -65 8 -14 13
-63 13 -132 0 -123 -13 -160 -71 -196 -17 -11 -31 -27 -32 -36 0 -9 25 -73 55
-144 30 -70 55 -129 55 -131 0 -2 -35 -4 -78 -4 l-78 0 -41 98 c-23 53 -49
117 -59 141 l-17 43 -51 -6 c-28 -3 -68 -6 -88 -6 l-38 0 0 -135 0 -135 -75 0
-75 0 0 375 0 375 233 0 233 0 51 -42z m-1867 -937 c0 -98 17 -91 -226 -91
l-214 0 0 -90 0 -90 175 0 175 0 0 -75 0 -75 -177 -2 -178 -3 -2 -74 c-1 -40
1 -79 3 -85 3 -8 68 -10 224 -8 l220 3 0 -76 0 -75 -305 0 -305 0 0 400 0 400
305 0 305 0 0 -59z m697 -5 l68 -64 5 -199 c7 -267 3 -311 -35 -364 -16 -23
-52 -57 -79 -76 l-48 -33 -234 0 -234 0 0 400 0 400 245 0 245 0 67 -64z m353
-239 c0 -258 2 -306 16 -325 14 -21 23 -22 134 -22 65 0 126 3 135 6 41 16 45
50 45 354 l0 290 75 0 75 0 0 -314 c0 -198 -4 -325 -11 -343 -14 -37 -54 -79
-108 -114 -45 -29 -45 -29 -210 -29 l-166 0 -46 34 c-28 21 -55 52 -68 78 -20
42 -21 58 -21 366 l0 322 75 0 75 0 0 -303z m-1502 -779 c21 -13 42 -38 54
-65 11 -24 26 -47 35 -50 12 -5 200 -128 339 -223 31 -21 248 -162 282 -182
l28 -17 249 168 c403 270 388 259 410 305 67 138 270 98 267 -52 0 -57 -26
-91 -86 -116 -41 -18 -52 -18 -95 -7 l-49 12 -78 -59 c-119 -89 -220 -159
-426 -297 -172 -115 -190 -124 -212 -113 -14 6 -23 15 -19 21 3 6 2 7 -4 4
-13 -8 -145 77 -136 88 4 4 3 5 -4 1 -16 -9 -125 63 -116 77 3 5 2 7 -4 4 -12
-8 -109 61 -105 75 1 5 -2 7 -8 3 -11 -7 -58 23 -202 132 l-98 72 -41 -14
c-23 -8 -51 -15 -63 -15 -29 0 -72 24 -69 38 2 6 -4 9 -11 6 -12 -5 -36 22
-41 46 -1 3 -5 17 -9 32 -11 39 25 111 67 132 45 22 103 20 145 -6z"/>
<path d="M4950 5770 l0 -80 103 0 c116 0 139 9 157 65 9 27 8 40 -2 62 l-13
28 -123 3 -122 3 0 -81z"/>
<path d="M4950 5470 l0 -80 114 0 c129 0 150 9 161 70 5 28 2 42 -15 63 -21
27 -23 27 -141 27 l-119 0 0 -80z"/>
<path d="M6408 5853 l-78 -4 0 -83 0 -83 45 -7 c25 -3 86 -3 136 1 75 5 92 9
105 27 22 31 18 91 -8 121 -26 29 -67 35 -200 28z"/>
<path d="M5121 4680 l1 -250 140 0 c137 0 139 0 163 26 25 27 25 28 25 230 0
261 13 244 -185 244 l-144 0 0 -250z"/>
<path d="M4217 3967 c-3 -8 1 -14 8 -14 7 0 11 6 8 14 -3 7 -6 13 -8 13 -2 0
-5 -6 -8 -13z"/>
<path d="M3796 3511 c-4 -5 -2 -12 3 -15 5 -4 12 -2 15 3 4 5 2 12 -3 15 -5 4
-12 2 -15 -3z"/>
<path d="M4483 2945 c0 -8 4 -12 9 -9 5 3 6 10 3 15 -9 13 -12 11 -12 -6z"/>
<path d="M5010 2616 c7 -7 13 -7 20 0 6 6 3 10 -10 10 -13 0 -16 -4 -10 -10z"/>
<path d="M6930 7006 c0 -2 8 -10 18 -17 15 -13 16 -12 3 4 -13 16 -21 21 -21
13z"/>
<path d="M9282 6900 c-12 -19 -11 -20 8 -8 11 7 20 16 20 20 0 15 -15 8 -28
-12z"/>
<path d="M2528 5974 c-14 -13 -8 -44 11 -66 19 -20 21 -20 37 -3 17 17 17 17
-5 10 -18 -5 -22 -4 -16 5 5 8 4 11 -3 6 -7 -4 -12 5 -14 25 -2 17 -6 27 -10
23z"/>
<path d="M1528 5483 c6 -2 18 -2 25 0 6 3 1 5 -13 5 -14 0 -19 -2 -12 -5z"/>
<path d="M981 5424 c0 -11 3 -14 6 -6 3 7 2 16 -1 19 -3 4 -6 -2 -5 -13z"/>
<path d="M8663 5033 c15 -2 37 -2 50 0 12 2 0 4 -28 4 -27 0 -38 -2 -22 -4z"/>
<path d="M8216 3565 c-3 -9 -6 -22 -5 -28 0 -7 5 -1 10 12 5 13 8 26 5 28 -2
2 -6 -3 -10 -12z"/>
<path d="M8770 3560 c6 -11 13 -20 16 -20 2 0 0 9 -6 20 -6 11 -13 20 -16 20
-2 0 0 -9 6 -20z"/>
<path d="M8750 3540 c0 -5 5 -10 11 -10 5 0 7 5 4 10 -3 6 -8 10 -11 10 -2 0
-4 -4 -4 -10z"/>
<path d="M8733 3489 c-1 -17 -8 -38 -14 -45 -10 -12 -9 -13 5 -8 16 6 20 17
17 43 -2 7 2 10 9 6 9 -6 9 -2 1 14 -15 27 -16 27 -18 -10z"/>
<path d="M8176 3491 c-17 -19 -17 -19 3 -14 12 3 21 12 21 19 0 18 -4 18 -24
-5z"/>
<path d="M8173 3451 c-9 -11 -21 -17 -26 -14 -5 3 -5 -3 1 -13 5 -11 7 -25 4
-33 -3 -9 0 -11 7 -7 7 5 9 17 5 28 -3 11 -2 18 3 15 4 -3 13 6 20 19 14 29 9
31 -14 5z"/>
<path d="M8130 3406 c0 -9 -4 -15 -9 -12 -4 3 -17 -11 -27 -32 -10 -20 -25
-41 -32 -45 -7 -5 -9 -13 -6 -19 4 -6 2 -13 -4 -17 -6 -4 -3 -15 10 -31 20
-24 20 -24 14 -2 -5 15 -4 22 4 20 7 -2 19 18 27 45 9 26 21 47 27 47 7 0 11
11 11 25 -2 28 -15 48 -15 21z m-46 -124 c3 -5 -1 -9 -9 -9 -8 0 -12 4 -9 9 3
4 7 8 9 8 2 0 6 -4 9 -8z"/>
<path d="M8667 3371 c9 -11 8 -19 -4 -38 -9 -13 -14 -25 -12 -28 3 -2 12 9 21
25 15 27 15 30 0 41 -14 11 -15 11 -5 0z"/>
<path d="M8015 3233 c-14 -31 -14 -43 -1 -43 14 0 40 49 31 58 -3 3 -5 -1 -5
-9 0 -11 -2 -12 -9 -1 -6 11 -10 10 -16 -5z"/>
<path d="M8575 3170 c3 -5 8 -10 11 -10 2 0 4 5 4 10 0 6 -5 10 -11 10 -5 0
-7 -4 -4 -10z"/>
<path d="M8560 3151 c0 -6 4 -13 10 -16 6 -3 7 1 4 9 -7 18 -14 21 -14 7z"/>
<path d="M8016 3115 c-11 -8 -16 -18 -13 -22 4 -3 7 -3 7 2 0 4 7 2 15 -5 13
-11 15 -8 13 14 -1 14 -3 26 -3 26 0 0 -9 -7 -19 -15z"/>
<path d="M8524 3098 c3 -15 26 -23 26 -8 0 6 -4 9 -9 6 -5 -4 -12 -1 -14 4 -3
6 -4 5 -3 -2z"/>
<path d="M8497 3074 c5 -13 3 -15 -8 -9 -12 7 -12 6 -1 -7 14 -18 0 -34 -19
-23 -6 4 -5 -2 2 -13 l13 -21 18 22 c14 16 16 22 6 29 -12 7 -4 12 15 9 14 -2
7 8 -13 19 -16 9 -19 8 -13 -6z"/>
<path d="M8450 3001 c0 -6 -3 -10 -7 -8 -5 1 -9 -1 -10 -5 -6 -17 -2 -20 12
-8 24 20 17 5 -12 -26 -15 -16 -31 -28 -35 -26 -4 1 -8 -2 -8 -8 0 -11 28 -9
48 3 7 5 10 12 7 17 -3 5 3 13 12 19 10 6 14 11 8 11 -5 0 -4 4 3 9 10 6 10
10 -3 21 -10 8 -15 9 -15 1z"/>
<path d="M8344 2829 c0 -13 3 -15 13 -7 7 6 13 12 13 13 0 2 -6 5 -13 8 -7 3
-13 -3 -13 -14z"/>
<path d="M8290 2797 c0 -2 6 -10 14 -16 11 -9 16 -9 22 1 4 7 4 10 -1 6 -4 -4
-14 -3 -22 3 -7 6 -13 9 -13 6z"/>
<path d="M8199 2693 c-13 -16 -12 -17 4 -4 9 7 17 15 17 17 0 8 -8 3 -21 -13z"/>
<path d="M8109 2583 c-18 -22 -22 -33 -11 -34 4 0 12 -5 18 -10 7 -6 16 -4 24
6 11 13 11 16 -1 13 -9 -2 -14 5 -13 20 2 26 2 26 -17 5z"/>
<path d="M8056 2493 c-4 -4 -15 -8 -24 -8 -11 0 -16 -9 -17 -32 l-1 -33 24 23
c28 26 46 57 34 57 -5 0 -12 -3 -16 -7z m-21 -22 c3 -5 2 -12 -3 -15 -5 -3 -9
1 -9 9 0 17 3 19 12 6z"/>
<path d="M1152 4695 c0 -16 2 -22 5 -12 2 9 2 23 0 30 -3 6 -5 -1 -5 -18z"/>
<path d="M1142 4600 c0 -14 2 -19 5 -12 2 6 2 18 0 25 -3 6 -5 1 -5 -13z"/>
<path d="M7384 4266 c-10 -8 -17 -16 -14 -19 3 -2 14 4 24 14 23 22 18 25 -10
5z"/>
<path d="M7420 4276 c0 -2 7 -6 15 -10 8 -3 15 -1 15 4 0 6 -7 10 -15 10 -8 0
-15 -2 -15 -4z"/>
<path d="M7456 4252 c-3 -5 1 -9 9 -9 8 0 12 4 9 9 -3 4 -7 8 -9 8 -2 0 -6 -4
-9 -8z"/>
<path d="M2577 4122 c1 -8 3 -16 3 -18 0 -3 5 -2 10 1 6 3 10 11 10 16 0 6 -4
8 -9 5 -5 -4 -11 -3 -14 1 -2 5 -2 2 0 -5z"/>
<path d="M7540 3290 c-9 -6 -10 -10 -3 -10 6 0 15 5 18 10 8 12 4 12 -15 0z"/>
<path d="M7445 3168 l-20 -21 22 12 c23 12 40 31 26 30 -4 0 -17 -10 -28 -21z"/>
<path d="M7290 2995 c-13 -14 -19 -25 -13 -25 6 0 18 11 27 25 9 14 15 25 13
25 -2 0 -14 -11 -27 -25z"/>
<path d="M7090 2810 c-9 -6 -10 -10 -3 -10 6 0 15 5 18 10 8 12 4 12 -15 0z"/>
<path d="M2380 3771 c0 -6 4 -13 10 -16 6 -3 7 1 4 9 -7 18 -14 21 -14 7z"/>
<path d="M7746 3103 c-6 -14 -5 -15 5 -6 7 7 10 15 7 18 -3 3 -9 -2 -12 -12z"/>
<path d="M6512 2990 c0 -14 2 -19 5 -12 2 6 2 18 0 25 -3 6 -5 1 -5 -13z"/>
<path d="M7640 3016 c0 -2 7 -9 15 -16 13 -11 14 -10 9 4 -5 14 -24 23 -24 12z"/>
<path d="M7798 2839 c-10 -5 -15 -16 -11 -25 4 -12 8 -11 20 6 18 25 14 32 -9
19z"/>
<path d="M7349 2723 c-13 -16 -12 -17 4 -4 16 13 21 21 13 21 -2 0 -10 -8 -17
-17z"/>
<path d="M7747 2893 c-4 -3 -7 -11 -7 -17 0 -6 5 -5 12 2 6 6 9 14 7 17 -3 3
-9 2 -12 -2z"/>
<path d="M7035 2481 c-3 -5 -2 -12 3 -15 5 -3 9 1 9 9 0 17 -3 19 -12 6z"/>
<path d="M6995 2451 c-3 -5 -2 -12 3 -15 5 -3 9 1 9 9 0 17 -3 19 -12 6z"/>
<path d="M7946 2375 c-15 -11 -17 -18 -9 -26 8 -8 13 -5 18 10 3 12 11 18 17
15 7 -4 8 -2 4 4 -9 14 -7 15 -30 -3z"/>
<path d="M7804 2278 l-29 -33 35 30 c19 17 37 31 39 33 2 1 0 2 -5 2 -6 0 -23
-15 -40 -32z"/>
<path d="M7744 2218 c-5 -7 -3 -8 7 -3 11 7 12 6 2 -7 -14 -16 -8 -28 15 -28
9 0 12 6 8 16 -3 8 -2 12 3 9 5 -3 13 0 17 6 4 7 3 9 -4 5 -6 -3 -13 -2 -17 4
-8 13 -22 13 -31 -2z"/>
<path d="M6460 2395 c-11 -13 -10 -14 4 -9 9 3 16 10 16 15 0 13 -6 11 -20 -6z"/>
<path d="M2407 2238 c19 -21 31 -25 14 -5 -6 8 -9 16 -6 19 3 2 -2 5 -10 5
-13 0 -13 -3 2 -19z"/>
<path d="M5578 2113 c7 -3 16 -2 19 1 4 3 -2 6 -13 5 -11 0 -14 -3 -6 -6z"/>
<path d="M7850 1902 c0 -10 22 -32 32 -32 5 0 3 9 -4 20 -13 20 -28 27 -28 12z"/>
<path d="M7880 1902 c0 -5 7 -13 16 -16 10 -4 14 -1 12 6 -5 15 -28 23 -28 10z"/>
</g>
</svg>
